%TF.GenerationSoftware,KiCad,Pcbnew,8.0.4*%
%TF.CreationDate,2024-08-26T10:42:39+09:00*%
%TF.ProjectId,UART-RS485 Read only,55415254-2d52-4533-9438-352052656164,rev?*%
%TF.SameCoordinates,Original*%
%TF.FileFunction,Copper,L1,Top*%
%TF.FilePolarity,Positive*%
%FSLAX46Y46*%
G04 Gerber Fmt 4.6, Leading zero omitted, Abs format (unit mm)*
G04 Created by KiCad (PCBNEW 8.0.4) date 2024-08-26 10:42:39*
%MOMM*%
%LPD*%
G01*
G04 APERTURE LIST*
G04 Aperture macros list*
%AMRoundRect*
0 Rectangle with rounded corners*
0 $1 Rounding radius*
0 $2 $3 $4 $5 $6 $7 $8 $9 X,Y pos of 4 corners*
0 Add a 4 corners polygon primitive as box body*
4,1,4,$2,$3,$4,$5,$6,$7,$8,$9,$2,$3,0*
0 Add four circle primitives for the rounded corners*
1,1,$1+$1,$2,$3*
1,1,$1+$1,$4,$5*
1,1,$1+$1,$6,$7*
1,1,$1+$1,$8,$9*
0 Add four rect primitives between the rounded corners*
20,1,$1+$1,$2,$3,$4,$5,0*
20,1,$1+$1,$4,$5,$6,$7,0*
20,1,$1+$1,$6,$7,$8,$9,0*
20,1,$1+$1,$8,$9,$2,$3,0*%
G04 Aperture macros list end*
%TA.AperFunction,ComponentPad*%
%ADD10RoundRect,0.250000X-0.725000X0.600000X-0.725000X-0.600000X0.725000X-0.600000X0.725000X0.600000X0*%
%TD*%
%TA.AperFunction,ComponentPad*%
%ADD11O,1.950000X1.700000*%
%TD*%
%TA.AperFunction,ComponentPad*%
%ADD12RoundRect,0.250000X0.725000X-0.600000X0.725000X0.600000X-0.725000X0.600000X-0.725000X-0.600000X0*%
%TD*%
%TA.AperFunction,SMDPad,CuDef*%
%ADD13RoundRect,0.218750X-0.256250X0.218750X-0.256250X-0.218750X0.256250X-0.218750X0.256250X0.218750X0*%
%TD*%
%TA.AperFunction,SMDPad,CuDef*%
%ADD14RoundRect,0.200000X0.275000X-0.200000X0.275000X0.200000X-0.275000X0.200000X-0.275000X-0.200000X0*%
%TD*%
%TA.AperFunction,SMDPad,CuDef*%
%ADD15RoundRect,0.150000X-0.825000X-0.150000X0.825000X-0.150000X0.825000X0.150000X-0.825000X0.150000X0*%
%TD*%
%TA.AperFunction,SMDPad,CuDef*%
%ADD16RoundRect,0.150000X-0.512500X-0.150000X0.512500X-0.150000X0.512500X0.150000X-0.512500X0.150000X0*%
%TD*%
%TA.AperFunction,SMDPad,CuDef*%
%ADD17RoundRect,0.225000X-0.250000X0.225000X-0.250000X-0.225000X0.250000X-0.225000X0.250000X0.225000X0*%
%TD*%
%TA.AperFunction,Conductor*%
%ADD18C,0.200000*%
%TD*%
G04 APERTURE END LIST*
D10*
%TO.P,J1,1,Pin_1*%
%TO.N,Net-(J1-Pin_1)*%
X147910000Y-92200000D03*
D11*
%TO.P,J1,2,Pin_2*%
%TO.N,unconnected-(J1-Pin_2-Pad2)*%
X147910000Y-94700000D03*
%TD*%
D12*
%TO.P,J3,1,Pin_1*%
%TO.N,+5V*%
X170070000Y-109240000D03*
D11*
%TO.P,J3,2,Pin_2*%
%TO.N,/A*%
X170070000Y-106740000D03*
%TO.P,J3,3,Pin_3*%
%TO.N,/B*%
X170070000Y-104240000D03*
%TO.P,J3,4,Pin_4*%
%TO.N,GND*%
X170070000Y-101740000D03*
%TD*%
D13*
%TO.P,D6,1,K*%
%TO.N,GND*%
X164760000Y-93232500D03*
%TO.P,D6,2,A*%
%TO.N,Net-(D6-A)*%
X164760000Y-94807500D03*
%TD*%
D14*
%TO.P,R7,1*%
%TO.N,/A*%
X166770000Y-106685000D03*
%TO.P,R7,2*%
%TO.N,/B*%
X166770000Y-105035000D03*
%TD*%
D13*
%TO.P,D1,1,K*%
%TO.N,GND*%
X152900000Y-93222500D03*
%TO.P,D1,2,A*%
%TO.N,Net-(D1-A)*%
X152900000Y-94797500D03*
%TD*%
D15*
%TO.P,U2,1,RO*%
%TO.N,/RX*%
X157595000Y-103955000D03*
%TO.P,U2,2,~{RE}*%
%TO.N,Net-(J1-Pin_1)*%
X157595000Y-105225000D03*
%TO.P,U2,3,DE*%
X157595000Y-106495000D03*
%TO.P,U2,4,DI*%
%TO.N,/TX*%
X157595000Y-107765000D03*
%TO.P,U2,5,GND*%
%TO.N,GND*%
X162545000Y-107765000D03*
%TO.P,U2,6,A*%
%TO.N,/A*%
X162545000Y-106495000D03*
%TO.P,U2,7,B*%
%TO.N,/B*%
X162545000Y-105225000D03*
%TO.P,U2,8,VCC*%
%TO.N,+3.3V*%
X162545000Y-103955000D03*
%TD*%
D13*
%TO.P,D4,1,K*%
%TO.N,GND*%
X160010000Y-93220000D03*
%TO.P,D4,2,A*%
%TO.N,Net-(D4-A)*%
X160010000Y-94795000D03*
%TD*%
D16*
%TO.P,U1,1,VIN*%
%TO.N,+5V*%
X155752500Y-110537500D03*
%TO.P,U1,2,GND*%
%TO.N,GND*%
X155752500Y-111487500D03*
%TO.P,U1,3,EN*%
%TO.N,+5V*%
X155752500Y-112437500D03*
%TO.P,U1,4,NC*%
%TO.N,unconnected-(U1-NC-Pad4)*%
X158027500Y-112437500D03*
%TO.P,U1,5,VOUT*%
%TO.N,+3.3V*%
X158027500Y-110537500D03*
%TD*%
D10*
%TO.P,J2,1,Pin_1*%
%TO.N,+5V*%
X147910000Y-101730000D03*
D11*
%TO.P,J2,2,Pin_2*%
%TO.N,/TX*%
X147910000Y-104230000D03*
%TO.P,J2,3,Pin_3*%
%TO.N,/RX*%
X147910000Y-106730000D03*
%TO.P,J2,4,Pin_4*%
%TO.N,GND*%
X147910000Y-109230000D03*
%TD*%
D13*
%TO.P,D5,1,K*%
%TO.N,GND*%
X162380000Y-93220000D03*
%TO.P,D5,2,A*%
%TO.N,Net-(D5-A)*%
X162380000Y-94795000D03*
%TD*%
%TO.P,D2,1,K*%
%TO.N,GND*%
X155270000Y-93202500D03*
%TO.P,D2,2,A*%
%TO.N,Net-(D2-A)*%
X155270000Y-94777500D03*
%TD*%
D14*
%TO.P,R4,1*%
%TO.N,+3.3V*%
X160010000Y-99575000D03*
%TO.P,R4,2*%
%TO.N,Net-(D4-A)*%
X160010000Y-97925000D03*
%TD*%
%TO.P,R6,1*%
%TO.N,/A*%
X164780000Y-99540000D03*
%TO.P,R6,2*%
%TO.N,Net-(D6-A)*%
X164780000Y-97890000D03*
%TD*%
%TO.P,R2,1*%
%TO.N,/RX*%
X155280000Y-99460000D03*
%TO.P,R2,2*%
%TO.N,Net-(D2-A)*%
X155280000Y-97810000D03*
%TD*%
%TO.P,R1,1*%
%TO.N,+5V*%
X152890000Y-99460000D03*
%TO.P,R1,2*%
%TO.N,Net-(D1-A)*%
X152890000Y-97810000D03*
%TD*%
D17*
%TO.P,C2,2*%
%TO.N,GND*%
X160850000Y-112090000D03*
%TO.P,C2,1*%
%TO.N,+3.3V*%
X160850000Y-110540000D03*
%TD*%
D14*
%TO.P,R5,1*%
%TO.N,/B*%
X162390000Y-99540000D03*
%TO.P,R5,2*%
%TO.N,Net-(D5-A)*%
X162390000Y-97890000D03*
%TD*%
D13*
%TO.P,D3,1,K*%
%TO.N,GND*%
X157640000Y-93232500D03*
%TO.P,D3,2,A*%
%TO.N,Net-(D3-A)*%
X157640000Y-94807500D03*
%TD*%
D14*
%TO.P,R3,1*%
%TO.N,/TX*%
X157637500Y-99525000D03*
%TO.P,R3,2*%
%TO.N,Net-(D3-A)*%
X157637500Y-97875000D03*
%TD*%
D17*
%TO.P,C1,1*%
%TO.N,+5V*%
X153210000Y-110535000D03*
%TO.P,C1,2*%
%TO.N,GND*%
X153210000Y-112085000D03*
%TD*%
D18*
%TO.N,+5V*%
X155112500Y-112440000D02*
X155710000Y-113037500D01*
X155112500Y-112437500D02*
X155112500Y-112440000D01*
X166272500Y-113037500D02*
X155710000Y-113037500D01*
X155112500Y-112437500D02*
X155752500Y-112437500D01*
X153210000Y-110535000D02*
X155112500Y-112437500D01*
%TO.N,+3.3V*%
X160850000Y-110540000D02*
X160850000Y-104675001D01*
X158030000Y-110540000D02*
X158027500Y-110537500D01*
X160850000Y-110540000D02*
X158030000Y-110540000D01*
%TO.N,+5V*%
X150180000Y-99460000D02*
X152890000Y-99460000D01*
X144680000Y-104960000D02*
X150180000Y-99460000D01*
%TO.N,/A*%
X168250000Y-103010000D02*
X164780000Y-99540000D01*
X172380000Y-104190000D02*
X171200000Y-103010000D01*
X172380000Y-105630000D02*
X172380000Y-104190000D01*
X171200000Y-103010000D02*
X168250000Y-103010000D01*
X171270000Y-106740000D02*
X172380000Y-105630000D01*
X170070000Y-106740000D02*
X171270000Y-106740000D01*
%TO.N,GND*%
X171950000Y-107930000D02*
X170500000Y-107930000D01*
%TO.N,/B*%
X162390000Y-100655000D02*
X166770000Y-105035000D01*
X162390000Y-99540000D02*
X162390000Y-100655000D01*
X162545000Y-105225000D02*
X166580000Y-105225000D01*
X166580000Y-105225000D02*
X166770000Y-105035000D01*
%TO.N,/TX*%
X158569999Y-107765000D02*
X157595000Y-107765000D01*
X159390000Y-106944999D02*
X158569999Y-107765000D01*
X159390000Y-101277500D02*
X159390000Y-106944999D01*
X157637500Y-99525000D02*
X159390000Y-101277500D01*
%TO.N,GND*%
X156332500Y-111487500D02*
X155752500Y-111487500D01*
X170500000Y-107930000D02*
X162710000Y-107930000D01*
X164820000Y-107930000D02*
X170500000Y-107930000D01*
X147910000Y-109230000D02*
X155748052Y-109230000D01*
X156750000Y-110231948D02*
X156750000Y-111070000D01*
X155748052Y-109230000D02*
X156750000Y-110231948D01*
X162710000Y-107930000D02*
X162545000Y-107765000D01*
X160660000Y-112090000D02*
X164820000Y-107930000D01*
X156750000Y-111070000D02*
X156332500Y-111487500D01*
%TO.N,+5V*%
X153210000Y-110535000D02*
X152485000Y-111260000D01*
X153210000Y-110535000D02*
X155750000Y-110535000D01*
X155750000Y-110535000D02*
X155752500Y-110537500D01*
X152485000Y-111260000D02*
X146650000Y-111260000D01*
X144680000Y-109290000D02*
X144680000Y-104960000D01*
X170070000Y-109240000D02*
X166272500Y-113037500D01*
X146650000Y-111260000D02*
X144680000Y-109290000D01*
%TO.N,+3.3V*%
X161570001Y-103955000D02*
X160850000Y-104675001D01*
X160010000Y-99575000D02*
X160010000Y-103835001D01*
X160010000Y-103835001D02*
X160850000Y-104675001D01*
X162545000Y-103955000D02*
X161570001Y-103955000D01*
%TO.N,Net-(D1-A)*%
X152890000Y-94807500D02*
X152900000Y-94797500D01*
X152890000Y-97810000D02*
X152890000Y-94807500D01*
%TO.N,/TX*%
X151445000Y-107765000D02*
X157595000Y-107765000D01*
X147910000Y-104230000D02*
X151445000Y-107765000D01*
%TO.N,/RX*%
X155280000Y-100510000D02*
X152710000Y-103080000D01*
X157595000Y-103955000D02*
X152055000Y-103955000D01*
X152050000Y-103960000D02*
X151170000Y-103080000D01*
X152055000Y-103955000D02*
X152050000Y-103960000D01*
X151170000Y-103080000D02*
X147300000Y-103080000D01*
X147300000Y-103080000D02*
X146580000Y-103800000D01*
X146580000Y-103800000D02*
X146580000Y-105400000D01*
X155280000Y-99460000D02*
X155280000Y-100510000D01*
X146580000Y-105400000D02*
X147910000Y-106730000D01*
X152710000Y-103080000D02*
X151170000Y-103080000D01*
%TO.N,/B*%
X169470000Y-104260000D02*
X167545000Y-104260000D01*
X167545000Y-104260000D02*
X166770000Y-105035000D01*
%TO.N,/A*%
X166845000Y-106760000D02*
X166770000Y-106685000D01*
X166580000Y-106495000D02*
X166770000Y-106685000D01*
X170070000Y-106740000D02*
X166825000Y-106740000D01*
X166825000Y-106740000D02*
X166770000Y-106685000D01*
X162545000Y-106495000D02*
X166580000Y-106495000D01*
%TO.N,Net-(J1-Pin_1)*%
X157595000Y-105225000D02*
X157595000Y-106495000D01*
%TO.N,Net-(D2-A)*%
X155275000Y-94877500D02*
X155275000Y-97805000D01*
%TO.N,Net-(D3-A)*%
X157637500Y-97875000D02*
X157637500Y-94940000D01*
%TO.N,Net-(D4-A)*%
X160010000Y-94825000D02*
X160010000Y-97915000D01*
%TO.N,Net-(D5-A)*%
X162387500Y-94907500D02*
X162387500Y-97882500D01*
X162367500Y-97952500D02*
X162360000Y-97960000D01*
X162377500Y-97942500D02*
X162360000Y-97960000D01*
%TO.N,Net-(D6-A)*%
X164760000Y-97900000D02*
X164760000Y-94807500D01*
%TD*%
%TA.AperFunction,Conductor*%
%TO.N,GND*%
G36*
X180302017Y-89340185D02*
G01*
X180347772Y-89392989D01*
X180358977Y-89444791D01*
X180322463Y-104809097D01*
X180302531Y-113195795D01*
X180282687Y-113262787D01*
X180229774Y-113308416D01*
X180178531Y-113319500D01*
X167139097Y-113319500D01*
X167072058Y-113299815D01*
X167026303Y-113247011D01*
X167016359Y-113177853D01*
X167045384Y-113114297D01*
X167051416Y-113107819D01*
X169532416Y-110626818D01*
X169593739Y-110593333D01*
X169620097Y-110590499D01*
X170845002Y-110590499D01*
X170845008Y-110590499D01*
X170947797Y-110579999D01*
X171114334Y-110524814D01*
X171263656Y-110432712D01*
X171387712Y-110308656D01*
X171479814Y-110159334D01*
X171534999Y-109992797D01*
X171545500Y-109890009D01*
X171545499Y-108589992D01*
X171534999Y-108487203D01*
X171479814Y-108320666D01*
X171387712Y-108171344D01*
X171263656Y-108047288D01*
X171114334Y-107955186D01*
X171114333Y-107955185D01*
X171108878Y-107951821D01*
X171062154Y-107899873D01*
X171050931Y-107830910D01*
X171078775Y-107766828D01*
X171086272Y-107758623D01*
X171225104Y-107619792D01*
X171350051Y-107447816D01*
X171388470Y-107372412D01*
X171436441Y-107321619D01*
X171466851Y-107308937D01*
X171501785Y-107299577D01*
X171551904Y-107270639D01*
X171638716Y-107220520D01*
X171750520Y-107108716D01*
X171750520Y-107108714D01*
X171760728Y-107098507D01*
X171760730Y-107098504D01*
X172738506Y-106120728D01*
X172738511Y-106120724D01*
X172748714Y-106110520D01*
X172748716Y-106110520D01*
X172860520Y-105998716D01*
X172907936Y-105916587D01*
X172931644Y-105875525D01*
X172931645Y-105875523D01*
X172939577Y-105861785D01*
X172980500Y-105709057D01*
X172980500Y-105550943D01*
X172980500Y-104991577D01*
X175319500Y-104991577D01*
X175319500Y-105988422D01*
X175350290Y-106182826D01*
X175411117Y-106370029D01*
X175495381Y-106535405D01*
X175500476Y-106545405D01*
X175616172Y-106704646D01*
X175755354Y-106843828D01*
X175914595Y-106959524D01*
X175949640Y-106977380D01*
X176089970Y-107048882D01*
X176089972Y-107048882D01*
X176089975Y-107048884D01*
X176190317Y-107081487D01*
X176277173Y-107109709D01*
X176471578Y-107140500D01*
X176471583Y-107140500D01*
X176668422Y-107140500D01*
X176862826Y-107109709D01*
X176877716Y-107104871D01*
X177050025Y-107048884D01*
X177225405Y-106959524D01*
X177384646Y-106843828D01*
X177523828Y-106704646D01*
X177639524Y-106545405D01*
X177728884Y-106370025D01*
X177789709Y-106182826D01*
X177801161Y-106110520D01*
X177820500Y-105988422D01*
X177820500Y-104991577D01*
X177789709Y-104797173D01*
X177746677Y-104664736D01*
X177728884Y-104609975D01*
X177728882Y-104609972D01*
X177728882Y-104609970D01*
X177676347Y-104506865D01*
X177639524Y-104434595D01*
X177523828Y-104275354D01*
X177384646Y-104136172D01*
X177225405Y-104020476D01*
X177205779Y-104010476D01*
X177050029Y-103931117D01*
X176862826Y-103870290D01*
X176668422Y-103839500D01*
X176668417Y-103839500D01*
X176471583Y-103839500D01*
X176471578Y-103839500D01*
X176277173Y-103870290D01*
X176089970Y-103931117D01*
X175914594Y-104020476D01*
X175823741Y-104086485D01*
X175755354Y-104136172D01*
X175755352Y-104136174D01*
X175755351Y-104136174D01*
X175616174Y-104275351D01*
X175616174Y-104275352D01*
X175616172Y-104275354D01*
X175577402Y-104328716D01*
X175500476Y-104434594D01*
X175411117Y-104609970D01*
X175350290Y-104797173D01*
X175319500Y-104991577D01*
X172980500Y-104991577D01*
X172980500Y-104279059D01*
X172980501Y-104279046D01*
X172980501Y-104110945D01*
X172980501Y-104110943D01*
X172939577Y-103958215D01*
X172888814Y-103870291D01*
X172860520Y-103821284D01*
X172748716Y-103709480D01*
X172748715Y-103709479D01*
X172744385Y-103705149D01*
X172744374Y-103705139D01*
X171687590Y-102648355D01*
X171687588Y-102648352D01*
X171568717Y-102529481D01*
X171568716Y-102529480D01*
X171481904Y-102479360D01*
X171481904Y-102479359D01*
X171481900Y-102479358D01*
X171469072Y-102471951D01*
X171420858Y-102421384D01*
X171407637Y-102352777D01*
X171420591Y-102308270D01*
X171446093Y-102258219D01*
X171511757Y-102056129D01*
X171511757Y-102056126D01*
X171522231Y-101990000D01*
X170474146Y-101990000D01*
X170512630Y-101923343D01*
X170545000Y-101802535D01*
X170545000Y-101677465D01*
X170512630Y-101556657D01*
X170474146Y-101490000D01*
X171522231Y-101490000D01*
X171511757Y-101423873D01*
X171511757Y-101423870D01*
X171446095Y-101221782D01*
X171349620Y-101032442D01*
X171224727Y-100860540D01*
X171224723Y-100860535D01*
X171074464Y-100710276D01*
X171074459Y-100710272D01*
X170902557Y-100585379D01*
X170713217Y-100488904D01*
X170511128Y-100423242D01*
X170320000Y-100392969D01*
X170320000Y-101335854D01*
X170253343Y-101297370D01*
X170132535Y-101265000D01*
X170007465Y-101265000D01*
X169886657Y-101297370D01*
X169820000Y-101335854D01*
X169820000Y-100392969D01*
X169628872Y-100423242D01*
X169628869Y-100423242D01*
X169426782Y-100488904D01*
X169237442Y-100585379D01*
X169065540Y-100710272D01*
X169065535Y-100710276D01*
X168915276Y-100860535D01*
X168915272Y-100860540D01*
X168790379Y-101032442D01*
X168693904Y-101221782D01*
X168628242Y-101423870D01*
X168628242Y-101423873D01*
X168617769Y-101490000D01*
X169665854Y-101490000D01*
X169627370Y-101556657D01*
X169595000Y-101677465D01*
X169595000Y-101802535D01*
X169627370Y-101923343D01*
X169665854Y-101990000D01*
X168617769Y-101990000D01*
X168628242Y-102056126D01*
X168628242Y-102056129D01*
X168690319Y-102247182D01*
X168692314Y-102317023D01*
X168656233Y-102376856D01*
X168593532Y-102407684D01*
X168572388Y-102409500D01*
X168550097Y-102409500D01*
X168483058Y-102389815D01*
X168462416Y-102373181D01*
X165791819Y-99702584D01*
X165758334Y-99641261D01*
X165755500Y-99614903D01*
X165755500Y-99283386D01*
X165752267Y-99247807D01*
X165749086Y-99212804D01*
X165698478Y-99050394D01*
X165610472Y-98904815D01*
X165610470Y-98904813D01*
X165610469Y-98904811D01*
X165508339Y-98802681D01*
X165474854Y-98741358D01*
X165479838Y-98671666D01*
X165508339Y-98627319D01*
X165610468Y-98525189D01*
X165610469Y-98525188D01*
X165610472Y-98525185D01*
X165698478Y-98379606D01*
X165749086Y-98217196D01*
X165755500Y-98146616D01*
X165755500Y-97633384D01*
X165749086Y-97562804D01*
X165698478Y-97400394D01*
X165610472Y-97254815D01*
X165610470Y-97254813D01*
X165610469Y-97254811D01*
X165490189Y-97134531D01*
X165490185Y-97134528D01*
X165420349Y-97092310D01*
X165373162Y-97040782D01*
X165360500Y-96986194D01*
X165360500Y-95728185D01*
X165380185Y-95661146D01*
X165419401Y-95622647D01*
X165465391Y-95594281D01*
X165584281Y-95475391D01*
X165672549Y-95332287D01*
X165725436Y-95172685D01*
X165735500Y-95074174D01*
X165735500Y-94540826D01*
X165725436Y-94442315D01*
X165672549Y-94282713D01*
X165672545Y-94282707D01*
X165672544Y-94282704D01*
X165584283Y-94139612D01*
X165584280Y-94139608D01*
X165552000Y-94107328D01*
X165518515Y-94046005D01*
X165523499Y-93976313D01*
X165552000Y-93931966D01*
X165583885Y-93900080D01*
X165652579Y-93788711D01*
X170179500Y-93788711D01*
X170179500Y-94031288D01*
X170210954Y-94270215D01*
X170211162Y-94271789D01*
X170241164Y-94383757D01*
X170273947Y-94506104D01*
X170366773Y-94730205D01*
X170366776Y-94730212D01*
X170488064Y-94940289D01*
X170488066Y-94940292D01*
X170488067Y-94940293D01*
X170635733Y-95132736D01*
X170635739Y-95132743D01*
X170807256Y-95304260D01*
X170807263Y-95304266D01*
X170827501Y-95319795D01*
X170999711Y-95451936D01*
X171209788Y-95573224D01*
X171433900Y-95666054D01*
X171668211Y-95728838D01*
X171848586Y-95752584D01*
X171908711Y-95760500D01*
X171908712Y-95760500D01*
X172151289Y-95760500D01*
X172199388Y-95754167D01*
X172391789Y-95728838D01*
X172626100Y-95666054D01*
X172850212Y-95573224D01*
X173060289Y-95451936D01*
X173252738Y-95304265D01*
X173424265Y-95132738D01*
X173571936Y-94940289D01*
X173693224Y-94730212D01*
X173786054Y-94506100D01*
X173848838Y-94271789D01*
X173880500Y-94031288D01*
X173880500Y-93788712D01*
X173848838Y-93548211D01*
X173786054Y-93313900D01*
X173693224Y-93089788D01*
X173571936Y-92879711D01*
X173477910Y-92757174D01*
X173424266Y-92687263D01*
X173424260Y-92687256D01*
X173252743Y-92515739D01*
X173252736Y-92515733D01*
X173060293Y-92368067D01*
X173060292Y-92368066D01*
X173060289Y-92368064D01*
X172850212Y-92246776D01*
X172822630Y-92235351D01*
X172626104Y-92153947D01*
X172391785Y-92091161D01*
X172151289Y-92059500D01*
X172151288Y-92059500D01*
X171908712Y-92059500D01*
X171908711Y-92059500D01*
X171668214Y-92091161D01*
X171433895Y-92153947D01*
X171209794Y-92246773D01*
X171209785Y-92246777D01*
X170999706Y-92368067D01*
X170807263Y-92515733D01*
X170807256Y-92515739D01*
X170635739Y-92687256D01*
X170635733Y-92687263D01*
X170488067Y-92879706D01*
X170366777Y-93089785D01*
X170366773Y-93089794D01*
X170273947Y-93313895D01*
X170211161Y-93548214D01*
X170179500Y-93788711D01*
X165652579Y-93788711D01*
X165672091Y-93757077D01*
X165672093Y-93757072D01*
X165724942Y-93597583D01*
X165734999Y-93499150D01*
X165735000Y-93499137D01*
X165735000Y-93482500D01*
X163785001Y-93482500D01*
X163785001Y-93499152D01*
X163795056Y-93597583D01*
X163847906Y-93757072D01*
X163847908Y-93757077D01*
X163936114Y-93900080D01*
X163968000Y-93931967D01*
X164001485Y-93993291D01*
X163996499Y-94062982D01*
X163968000Y-94107327D01*
X163935719Y-94139607D01*
X163935716Y-94139612D01*
X163847455Y-94282704D01*
X163847451Y-94282713D01*
X163794564Y-94442315D01*
X163794564Y-94442316D01*
X163794563Y-94442316D01*
X163784500Y-94540818D01*
X163784500Y-95074181D01*
X163794563Y-95172683D01*
X163847450Y-95332284D01*
X163847455Y-95332295D01*
X163935716Y-95475387D01*
X163935719Y-95475391D01*
X164054609Y-95594281D01*
X164100598Y-95622647D01*
X164147321Y-95674594D01*
X164159500Y-95728185D01*
X164159500Y-97010375D01*
X164139815Y-97077414D01*
X164099651Y-97116491D01*
X164069814Y-97134528D01*
X164069810Y-97134531D01*
X163949530Y-97254811D01*
X163861522Y-97400393D01*
X163810913Y-97562807D01*
X163804500Y-97633386D01*
X163804500Y-98146613D01*
X163810913Y-98217192D01*
X163810913Y-98217194D01*
X163810914Y-98217196D01*
X163861522Y-98379606D01*
X163901168Y-98445189D01*
X163949530Y-98525188D01*
X164051661Y-98627319D01*
X164085146Y-98688642D01*
X164080162Y-98758334D01*
X164051661Y-98802681D01*
X163949531Y-98904810D01*
X163949530Y-98904811D01*
X163861522Y-99050393D01*
X163810913Y-99212807D01*
X163804500Y-99283386D01*
X163804500Y-99796613D01*
X163810913Y-99867192D01*
X163810913Y-99867194D01*
X163810914Y-99867196D01*
X163861522Y-100029606D01*
X163901168Y-100095189D01*
X163949530Y-100175188D01*
X164069811Y-100295469D01*
X164069813Y-100295470D01*
X164069815Y-100295472D01*
X164215394Y-100383478D01*
X164377804Y-100434086D01*
X164448384Y-100440500D01*
X164779903Y-100440500D01*
X164846942Y-100460185D01*
X164867584Y-100476819D01*
X167765139Y-103374374D01*
X167765149Y-103374385D01*
X167769479Y-103378715D01*
X167769480Y-103378716D01*
X167838584Y-103447820D01*
X167872068Y-103509141D01*
X167867084Y-103578833D01*
X167825213Y-103634767D01*
X167759749Y-103659184D01*
X167750902Y-103659500D01*
X167631670Y-103659500D01*
X167631654Y-103659499D01*
X167624058Y-103659499D01*
X167465943Y-103659499D01*
X167389579Y-103679961D01*
X167313214Y-103700423D01*
X167313209Y-103700426D01*
X167176290Y-103779475D01*
X167176282Y-103779481D01*
X166857680Y-104098083D01*
X166796357Y-104131568D01*
X166726665Y-104126584D01*
X166682318Y-104098083D01*
X163074691Y-100490456D01*
X163041206Y-100429133D01*
X163046190Y-100359441D01*
X163088062Y-100303508D01*
X163098223Y-100296658D01*
X163100185Y-100295472D01*
X163220472Y-100175185D01*
X163308478Y-100029606D01*
X163359086Y-99867196D01*
X163365500Y-99796616D01*
X163365500Y-99283384D01*
X163359086Y-99212804D01*
X163308478Y-99050394D01*
X163220472Y-98904815D01*
X163220470Y-98904813D01*
X163220469Y-98904811D01*
X163118339Y-98802681D01*
X163084854Y-98741358D01*
X163089838Y-98671666D01*
X163118339Y-98627319D01*
X163220468Y-98525189D01*
X163220469Y-98525188D01*
X163220472Y-98525185D01*
X163308478Y-98379606D01*
X163359086Y-98217196D01*
X163365500Y-98146616D01*
X163365500Y-97633384D01*
X163359086Y-97562804D01*
X163308478Y-97400394D01*
X163220472Y-97254815D01*
X163220470Y-97254813D01*
X163220469Y-97254811D01*
X163100189Y-97134531D01*
X163100185Y-97134528D01*
X163047849Y-97102889D01*
X163000662Y-97051361D01*
X162988000Y-96996773D01*
X162988000Y-95711059D01*
X163007685Y-95644020D01*
X163046901Y-95605521D01*
X163085391Y-95581781D01*
X163204281Y-95462891D01*
X163292549Y-95319787D01*
X163345436Y-95160185D01*
X163355500Y-95061674D01*
X163355500Y-94528326D01*
X163345436Y-94429815D01*
X163292549Y-94270213D01*
X163292545Y-94270207D01*
X163292544Y-94270204D01*
X163204283Y-94127112D01*
X163204280Y-94127108D01*
X163172000Y-94094828D01*
X163138515Y-94033505D01*
X163143499Y-93963813D01*
X163172000Y-93919466D01*
X163203885Y-93887580D01*
X163292091Y-93744577D01*
X163292093Y-93744572D01*
X163344942Y-93585083D01*
X163354999Y-93486650D01*
X163355000Y-93486637D01*
X163355000Y-93470000D01*
X161405001Y-93470000D01*
X161405001Y-93486652D01*
X161415056Y-93585083D01*
X161467906Y-93744572D01*
X161467908Y-93744577D01*
X161556114Y-93887580D01*
X161588000Y-93919467D01*
X161621485Y-93980791D01*
X161616499Y-94050482D01*
X161588000Y-94094827D01*
X161555719Y-94127107D01*
X161555716Y-94127112D01*
X161467455Y-94270204D01*
X161467450Y-94270215D01*
X161466622Y-94272715D01*
X161414564Y-94429815D01*
X161414564Y-94429816D01*
X161414563Y-94429816D01*
X161404500Y-94528318D01*
X161404500Y-95061681D01*
X161414563Y-95160183D01*
X161467450Y-95319784D01*
X161467455Y-95319795D01*
X161555716Y-95462887D01*
X161555719Y-95462891D01*
X161674609Y-95581781D01*
X161728098Y-95614773D01*
X161774821Y-95666720D01*
X161787000Y-95720311D01*
X161787000Y-96999796D01*
X161767315Y-97066835D01*
X161727151Y-97105912D01*
X161679814Y-97134528D01*
X161679810Y-97134531D01*
X161559530Y-97254811D01*
X161471522Y-97400393D01*
X161420913Y-97562807D01*
X161414500Y-97633386D01*
X161414500Y-98146613D01*
X161420913Y-98217192D01*
X161420913Y-98217194D01*
X161420914Y-98217196D01*
X161471522Y-98379606D01*
X161511168Y-98445189D01*
X161559530Y-98525188D01*
X161661661Y-98627319D01*
X161695146Y-98688642D01*
X161690162Y-98758334D01*
X161661661Y-98802681D01*
X161559531Y-98904810D01*
X161559530Y-98904811D01*
X161471522Y-99050393D01*
X161420913Y-99212807D01*
X161414500Y-99283386D01*
X161414500Y-99796613D01*
X161420913Y-99867192D01*
X161420913Y-99867194D01*
X161420914Y-99867196D01*
X161471522Y-100029606D01*
X161511168Y-100095189D01*
X161559530Y-100175188D01*
X161612661Y-100228319D01*
X161646146Y-100289642D01*
X161641162Y-100359334D01*
X161599290Y-100415267D01*
X161533826Y-100439684D01*
X161524980Y-100440000D01*
X160910020Y-100440000D01*
X160842981Y-100420315D01*
X160797226Y-100367511D01*
X160787282Y-100298353D01*
X160816307Y-100234797D01*
X160822339Y-100228319D01*
X160840468Y-100210189D01*
X160840469Y-100210188D01*
X160840472Y-100210185D01*
X160928478Y-100064606D01*
X160979086Y-99902196D01*
X160985500Y-99831616D01*
X160985500Y-99318384D01*
X160979086Y-99247804D01*
X160928478Y-99085394D01*
X160840472Y-98939815D01*
X160840470Y-98939813D01*
X160840469Y-98939811D01*
X160738339Y-98837681D01*
X160704854Y-98776358D01*
X160709838Y-98706666D01*
X160738339Y-98662319D01*
X160840468Y-98560189D01*
X160840469Y-98560188D01*
X160840472Y-98560185D01*
X160928478Y-98414606D01*
X160979086Y-98252196D01*
X160985500Y-98181616D01*
X160985500Y-97668384D01*
X160979086Y-97597804D01*
X160928478Y-97435394D01*
X160840472Y-97289815D01*
X160840470Y-97289813D01*
X160840469Y-97289811D01*
X160720188Y-97169530D01*
X160670348Y-97139400D01*
X160623162Y-97087871D01*
X160610500Y-97033284D01*
X160610500Y-95715685D01*
X160630185Y-95648646D01*
X160669401Y-95610147D01*
X160715391Y-95581781D01*
X160834281Y-95462891D01*
X160922549Y-95319787D01*
X160975436Y-95160185D01*
X160985500Y-95061674D01*
X160985500Y-94528326D01*
X160975436Y-94429815D01*
X160922549Y-94270213D01*
X160922545Y-94270207D01*
X160922544Y-94270204D01*
X160834283Y-94127112D01*
X160834280Y-94127108D01*
X160802000Y-94094828D01*
X160768515Y-94033505D01*
X160773499Y-93963813D01*
X160802000Y-93919466D01*
X160833885Y-93887580D01*
X160922091Y-93744577D01*
X160922093Y-93744572D01*
X160974942Y-93585083D01*
X160984999Y-93486650D01*
X160985000Y-93486637D01*
X160985000Y-93470000D01*
X159035001Y-93470000D01*
X159035001Y-93486652D01*
X159045056Y-93585083D01*
X159097906Y-93744572D01*
X159097908Y-93744577D01*
X159186114Y-93887580D01*
X159218000Y-93919467D01*
X159251485Y-93980791D01*
X159246499Y-94050482D01*
X159218000Y-94094827D01*
X159185719Y-94127107D01*
X159185716Y-94127112D01*
X159097455Y-94270204D01*
X159097450Y-94270215D01*
X159096622Y-94272715D01*
X159044564Y-94429815D01*
X159044564Y-94429816D01*
X159044563Y-94429816D01*
X159034500Y-94528318D01*
X159034500Y-95061681D01*
X159044563Y-95160183D01*
X159097450Y-95319784D01*
X159097455Y-95319795D01*
X159185716Y-95462887D01*
X159185719Y-95462891D01*
X159304609Y-95581781D01*
X159350598Y-95610147D01*
X159397321Y-95662094D01*
X159409500Y-95715685D01*
X159409500Y-97033284D01*
X159389815Y-97100323D01*
X159349652Y-97139400D01*
X159299811Y-97169530D01*
X159179530Y-97289811D01*
X159091522Y-97435393D01*
X159040913Y-97597807D01*
X159034500Y-97668386D01*
X159034500Y-98181613D01*
X159040913Y-98252192D01*
X159040913Y-98252194D01*
X159040914Y-98252196D01*
X159091522Y-98414606D01*
X159158371Y-98525188D01*
X159179530Y-98560188D01*
X159281661Y-98662319D01*
X159315146Y-98723642D01*
X159310162Y-98793334D01*
X159281661Y-98837681D01*
X159179531Y-98939810D01*
X159179530Y-98939811D01*
X159091522Y-99085393D01*
X159040913Y-99247807D01*
X159034500Y-99318386D01*
X159034500Y-99773403D01*
X159014815Y-99840442D01*
X158962011Y-99886197D01*
X158892853Y-99896141D01*
X158829297Y-99867116D01*
X158822819Y-99861084D01*
X158649319Y-99687584D01*
X158615834Y-99626261D01*
X158613000Y-99599903D01*
X158613000Y-99268386D01*
X158606586Y-99197807D01*
X158606586Y-99197804D01*
X158555978Y-99035394D01*
X158467972Y-98889815D01*
X158467970Y-98889813D01*
X158467969Y-98889811D01*
X158365839Y-98787681D01*
X158332354Y-98726358D01*
X158337338Y-98656666D01*
X158365839Y-98612319D01*
X158467968Y-98510189D01*
X158467969Y-98510188D01*
X158467972Y-98510185D01*
X158555978Y-98364606D01*
X158606586Y-98202196D01*
X158613000Y-98131616D01*
X158613000Y-97618384D01*
X158606586Y-97547804D01*
X158555978Y-97385394D01*
X158467972Y-97239815D01*
X158467970Y-97239813D01*
X158467969Y-97239811D01*
X158347688Y-97119530D01*
X158315916Y-97100323D01*
X158297847Y-97089399D01*
X158250662Y-97037871D01*
X158238000Y-96983284D01*
X158238000Y-95729727D01*
X158257685Y-95662688D01*
X158296901Y-95624189D01*
X158345391Y-95594281D01*
X158464281Y-95475391D01*
X158552549Y-95332287D01*
X158605436Y-95172685D01*
X158615500Y-95074174D01*
X158615500Y-94540826D01*
X158605436Y-94442315D01*
X158552549Y-94282713D01*
X158552545Y-94282707D01*
X158552544Y-94282704D01*
X158464283Y-94139612D01*
X158464280Y-94139608D01*
X158432000Y-94107328D01*
X158398515Y-94046005D01*
X158403499Y-93976313D01*
X158432000Y-93931966D01*
X158463885Y-93900080D01*
X158552091Y-93757077D01*
X158552093Y-93757072D01*
X158604942Y-93597583D01*
X158614999Y-93499150D01*
X158615000Y-93499137D01*
X158615000Y-93482500D01*
X156665001Y-93482500D01*
X156665001Y-93499152D01*
X156675056Y-93597583D01*
X156727906Y-93757072D01*
X156727908Y-93757077D01*
X156816114Y-93900080D01*
X156848000Y-93931967D01*
X156881485Y-93993291D01*
X156876499Y-94062982D01*
X156848000Y-94107327D01*
X156815719Y-94139607D01*
X156815716Y-94139612D01*
X156727455Y-94282704D01*
X156727451Y-94282713D01*
X156674564Y-94442315D01*
X156674564Y-94442316D01*
X156674563Y-94442316D01*
X156664500Y-94540818D01*
X156664500Y-95074181D01*
X156674563Y-95172683D01*
X156727450Y-95332284D01*
X156727455Y-95332295D01*
X156815716Y-95475387D01*
X156815719Y-95475391D01*
X156934609Y-95594281D01*
X156978098Y-95621105D01*
X157024821Y-95673052D01*
X157037000Y-95726643D01*
X157037000Y-96983284D01*
X157017315Y-97050323D01*
X156977152Y-97089400D01*
X156927311Y-97119530D01*
X156807030Y-97239811D01*
X156719022Y-97385393D01*
X156668413Y-97547807D01*
X156662000Y-97618386D01*
X156662000Y-98131613D01*
X156668413Y-98202192D01*
X156719022Y-98364606D01*
X156807030Y-98510188D01*
X156909161Y-98612319D01*
X156942646Y-98673642D01*
X156937662Y-98743334D01*
X156909161Y-98787681D01*
X156807031Y-98889810D01*
X156807030Y-98889811D01*
X156719022Y-99035393D01*
X156668413Y-99197807D01*
X156662000Y-99268386D01*
X156662000Y-99781613D01*
X156668413Y-99852192D01*
X156668413Y-99852194D01*
X156668414Y-99852196D01*
X156719022Y-100014606D01*
X156771765Y-100101853D01*
X156789600Y-100169404D01*
X156768083Y-100235878D01*
X156714043Y-100280166D01*
X156665647Y-100290000D01*
X156309999Y-100290000D01*
X156092181Y-100507818D01*
X156030858Y-100541303D01*
X155961166Y-100536319D01*
X155905233Y-100494447D01*
X155880816Y-100428983D01*
X155880500Y-100420137D01*
X155880500Y-100351715D01*
X155900185Y-100284676D01*
X155940349Y-100245598D01*
X155990185Y-100215472D01*
X156110472Y-100095185D01*
X156198478Y-99949606D01*
X156249086Y-99787196D01*
X156255500Y-99716616D01*
X156255500Y-99203384D01*
X156249086Y-99132804D01*
X156198478Y-98970394D01*
X156110472Y-98824815D01*
X156110470Y-98824813D01*
X156110469Y-98824811D01*
X156008339Y-98722681D01*
X155974854Y-98661358D01*
X155979838Y-98591666D01*
X156008339Y-98547319D01*
X156110468Y-98445189D01*
X156110469Y-98445188D01*
X156110472Y-98445185D01*
X156198478Y-98299606D01*
X156249086Y-98137196D01*
X156255500Y-98066616D01*
X156255500Y-97553384D01*
X156249086Y-97482804D01*
X156198478Y-97320394D01*
X156110472Y-97174815D01*
X156110470Y-97174813D01*
X156110469Y-97174811D01*
X155990189Y-97054531D01*
X155990185Y-97054528D01*
X155935349Y-97021378D01*
X155888162Y-96969850D01*
X155875500Y-96915262D01*
X155875500Y-95695101D01*
X155895185Y-95628062D01*
X155934401Y-95589563D01*
X155975391Y-95564281D01*
X156094281Y-95445391D01*
X156182549Y-95302287D01*
X156235436Y-95142685D01*
X156245500Y-95044174D01*
X156245500Y-94510826D01*
X156235436Y-94412315D01*
X156182549Y-94252713D01*
X156182545Y-94252707D01*
X156182544Y-94252704D01*
X156094283Y-94109612D01*
X156094280Y-94109608D01*
X156062000Y-94077328D01*
X156028515Y-94016005D01*
X156033499Y-93946313D01*
X156062000Y-93901966D01*
X156093885Y-93870080D01*
X156182091Y-93727077D01*
X156182093Y-93727072D01*
X156234942Y-93567583D01*
X156244999Y-93469150D01*
X156245000Y-93469137D01*
X156245000Y-93452500D01*
X154295001Y-93452500D01*
X154295001Y-93469152D01*
X154305056Y-93567583D01*
X154357906Y-93727072D01*
X154357908Y-93727077D01*
X154446114Y-93870080D01*
X154478000Y-93901967D01*
X154511485Y-93963291D01*
X154506499Y-94032982D01*
X154478000Y-94077327D01*
X154445719Y-94109607D01*
X154445716Y-94109612D01*
X154357455Y-94252704D01*
X154357450Y-94252715D01*
X154350823Y-94272715D01*
X154304564Y-94412315D01*
X154304564Y-94412316D01*
X154304563Y-94412316D01*
X154294500Y-94510818D01*
X154294500Y-95044181D01*
X154304563Y-95142683D01*
X154357450Y-95302284D01*
X154357455Y-95302295D01*
X154445716Y-95445387D01*
X154445719Y-95445391D01*
X154564609Y-95564281D01*
X154615598Y-95595731D01*
X154662321Y-95647678D01*
X154674500Y-95701269D01*
X154674500Y-96921307D01*
X154654815Y-96988346D01*
X154614651Y-97027423D01*
X154569814Y-97054528D01*
X154569810Y-97054531D01*
X154449530Y-97174811D01*
X154361522Y-97320393D01*
X154310913Y-97482807D01*
X154304500Y-97553386D01*
X154304500Y-98066613D01*
X154310913Y-98137192D01*
X154310913Y-98137194D01*
X154310914Y-98137196D01*
X154346749Y-98252196D01*
X154361522Y-98299606D01*
X154449530Y-98445188D01*
X154551661Y-98547319D01*
X154585146Y-98608642D01*
X154580162Y-98678334D01*
X154551661Y-98722681D01*
X154449531Y-98824810D01*
X154449530Y-98824811D01*
X154361522Y-98970393D01*
X154310913Y-99132807D01*
X154304500Y-99203386D01*
X154304500Y-99716613D01*
X154310913Y-99787192D01*
X154310913Y-99787194D01*
X154310914Y-99787196D01*
X154346749Y-99902196D01*
X154361522Y-99949606D01*
X154449530Y-100095188D01*
X154559872Y-100205530D01*
X154593357Y-100266853D01*
X154588373Y-100336545D01*
X154559872Y-100380892D01*
X154548063Y-100392701D01*
X154486740Y-100426186D01*
X154417048Y-100421202D01*
X154372701Y-100392701D01*
X154370000Y-100390000D01*
X153725020Y-100390000D01*
X153657981Y-100370315D01*
X153612226Y-100317511D01*
X153602282Y-100248353D01*
X153631307Y-100184797D01*
X153637339Y-100178319D01*
X153720468Y-100095189D01*
X153720469Y-100095188D01*
X153720472Y-100095185D01*
X153808478Y-99949606D01*
X153859086Y-99787196D01*
X153865500Y-99716616D01*
X153865500Y-99203384D01*
X153859086Y-99132804D01*
X153808478Y-98970394D01*
X153720472Y-98824815D01*
X153720470Y-98824813D01*
X153720469Y-98824811D01*
X153618339Y-98722681D01*
X153584854Y-98661358D01*
X153589838Y-98591666D01*
X153618339Y-98547319D01*
X153720468Y-98445189D01*
X153720469Y-98445188D01*
X153720472Y-98445185D01*
X153808478Y-98299606D01*
X153859086Y-98137196D01*
X153865500Y-98066616D01*
X153865500Y-97553384D01*
X153859086Y-97482804D01*
X153808478Y-97320394D01*
X153720472Y-97174815D01*
X153720470Y-97174813D01*
X153720469Y-97174811D01*
X153600188Y-97054530D01*
X153550348Y-97024400D01*
X153503162Y-96972871D01*
X153490500Y-96918284D01*
X153490500Y-95724353D01*
X153510185Y-95657314D01*
X153549401Y-95618815D01*
X153605391Y-95584281D01*
X153724281Y-95465391D01*
X153812549Y-95322287D01*
X153865436Y-95162685D01*
X153875500Y-95064174D01*
X153875500Y-94530826D01*
X153865436Y-94432315D01*
X153812549Y-94272713D01*
X153812545Y-94272707D01*
X153812544Y-94272704D01*
X153724283Y-94129612D01*
X153724280Y-94129608D01*
X153692000Y-94097328D01*
X153658515Y-94036005D01*
X153663499Y-93966313D01*
X153692000Y-93921966D01*
X153723885Y-93890080D01*
X153812091Y-93747077D01*
X153812093Y-93747072D01*
X153864942Y-93587583D01*
X153874999Y-93489150D01*
X153875000Y-93489137D01*
X153875000Y-93472500D01*
X151925001Y-93472500D01*
X151925001Y-93489152D01*
X151935056Y-93587583D01*
X151987906Y-93747072D01*
X151987908Y-93747077D01*
X152076114Y-93890080D01*
X152108000Y-93921967D01*
X152141485Y-93983291D01*
X152136499Y-94052982D01*
X152108000Y-94097327D01*
X152075719Y-94129607D01*
X152075716Y-94129612D01*
X151987455Y-94272704D01*
X151987450Y-94272715D01*
X151968460Y-94330025D01*
X151934564Y-94432315D01*
X151934564Y-94432316D01*
X151934563Y-94432316D01*
X151924500Y-94530818D01*
X151924500Y-95064181D01*
X151934563Y-95162683D01*
X151987450Y-95322284D01*
X151987455Y-95322295D01*
X152075716Y-95465387D01*
X152075719Y-95465391D01*
X152194609Y-95584281D01*
X152230597Y-95606479D01*
X152277321Y-95658426D01*
X152289500Y-95712017D01*
X152289500Y-96918284D01*
X152269815Y-96985323D01*
X152229652Y-97024400D01*
X152179811Y-97054530D01*
X152059530Y-97174811D01*
X151971522Y-97320393D01*
X151920913Y-97482807D01*
X151914500Y-97553386D01*
X151914500Y-98066613D01*
X151920913Y-98137192D01*
X151920913Y-98137194D01*
X151920914Y-98137196D01*
X151956749Y-98252196D01*
X151971522Y-98299606D01*
X152059530Y-98445188D01*
X152161661Y-98547319D01*
X152195146Y-98608642D01*
X152190162Y-98678334D01*
X152161661Y-98722681D01*
X152061161Y-98823181D01*
X151999838Y-98856666D01*
X151973480Y-98859500D01*
X150266670Y-98859500D01*
X150266654Y-98859499D01*
X150259058Y-98859499D01*
X150100943Y-98859499D01*
X150024579Y-98879961D01*
X149948214Y-98900423D01*
X149948209Y-98900426D01*
X149811290Y-98979475D01*
X149811282Y-98979481D01*
X148447582Y-100343181D01*
X148386259Y-100376666D01*
X148359901Y-100379500D01*
X147134998Y-100379500D01*
X147134981Y-100379501D01*
X147032203Y-100390000D01*
X147032200Y-100390001D01*
X146865668Y-100445185D01*
X146865663Y-100445187D01*
X146716342Y-100537289D01*
X146592289Y-100661342D01*
X146500187Y-100810663D01*
X146500186Y-100810666D01*
X146445001Y-100977203D01*
X146445001Y-100977204D01*
X146445000Y-100977204D01*
X146434500Y-101079983D01*
X146434500Y-102304901D01*
X146414815Y-102371940D01*
X146398181Y-102392582D01*
X144311286Y-104479478D01*
X144199481Y-104591282D01*
X144199479Y-104591284D01*
X144194582Y-104599767D01*
X144177869Y-104628716D01*
X144120423Y-104728215D01*
X144079499Y-104880943D01*
X144079499Y-104880945D01*
X144079499Y-105049046D01*
X144079500Y-105049059D01*
X144079500Y-109203330D01*
X144079499Y-109203348D01*
X144079499Y-109369054D01*
X144079498Y-109369054D01*
X144109227Y-109480000D01*
X144120423Y-109521785D01*
X144134478Y-109546129D01*
X144149358Y-109571900D01*
X144149359Y-109571904D01*
X144149360Y-109571904D01*
X144193291Y-109647997D01*
X144199479Y-109658714D01*
X144199481Y-109658717D01*
X144318349Y-109777585D01*
X144318354Y-109777589D01*
X146281284Y-111740520D01*
X146281286Y-111740521D01*
X146281290Y-111740524D01*
X146385599Y-111800746D01*
X146418216Y-111819577D01*
X146570943Y-111860501D01*
X146570945Y-111860501D01*
X146736654Y-111860501D01*
X146736670Y-111860500D01*
X152398331Y-111860500D01*
X152398347Y-111860501D01*
X152405943Y-111860501D01*
X152564055Y-111860501D01*
X152564057Y-111860501D01*
X152640567Y-111840000D01*
X152643460Y-111839225D01*
X152675553Y-111835000D01*
X153336000Y-111835000D01*
X153403039Y-111854685D01*
X153448794Y-111907489D01*
X153460000Y-111959000D01*
X153460000Y-113034999D01*
X153508308Y-113034999D01*
X153508322Y-113034998D01*
X153607607Y-113024855D01*
X153768481Y-112971547D01*
X153768492Y-112971542D01*
X153912728Y-112882575D01*
X153912732Y-112882572D01*
X154032572Y-112762732D01*
X154032575Y-112762728D01*
X154121542Y-112618492D01*
X154121547Y-112618481D01*
X154138630Y-112566929D01*
X154178402Y-112509484D01*
X154242918Y-112482661D01*
X154311694Y-112494976D01*
X154344017Y-112518252D01*
X154601243Y-112775478D01*
X154632637Y-112828560D01*
X154638255Y-112847897D01*
X154721917Y-112989362D01*
X154721923Y-112989370D01*
X154840372Y-113107819D01*
X154873857Y-113169142D01*
X154868873Y-113238834D01*
X154827001Y-113294767D01*
X154761537Y-113319184D01*
X154752691Y-113319500D01*
X136734500Y-113319500D01*
X136667461Y-113299815D01*
X136621706Y-113247011D01*
X136610500Y-113195500D01*
X136610500Y-112358322D01*
X152235001Y-112358322D01*
X152245144Y-112457607D01*
X152298452Y-112618481D01*
X152298457Y-112618492D01*
X152387424Y-112762728D01*
X152387427Y-112762732D01*
X152507267Y-112882572D01*
X152507271Y-112882575D01*
X152651507Y-112971542D01*
X152651518Y-112971547D01*
X152812393Y-113024855D01*
X152911683Y-113034999D01*
X152959999Y-113034998D01*
X152960000Y-113034998D01*
X152960000Y-112335000D01*
X152235001Y-112335000D01*
X152235001Y-112358322D01*
X136610500Y-112358322D01*
X136610500Y-104981577D01*
X140159500Y-104981577D01*
X140159500Y-105978422D01*
X140190290Y-106172826D01*
X140251117Y-106360029D01*
X140340476Y-106535405D01*
X140456172Y-106694646D01*
X140595354Y-106833828D01*
X140754595Y-106949524D01*
X140809266Y-106977380D01*
X140929970Y-107038882D01*
X140929972Y-107038882D01*
X140929975Y-107038884D01*
X140960752Y-107048884D01*
X141117173Y-107099709D01*
X141311578Y-107130500D01*
X141311583Y-107130500D01*
X141508422Y-107130500D01*
X141702826Y-107099709D01*
X141715780Y-107095500D01*
X141890025Y-107038884D01*
X142065405Y-106949524D01*
X142224646Y-106833828D01*
X142363828Y-106694646D01*
X142479524Y-106535405D01*
X142568884Y-106360025D01*
X142629709Y-106172826D01*
X142634987Y-106139500D01*
X142660500Y-105978422D01*
X142660500Y-104981577D01*
X142629709Y-104787173D01*
X142578223Y-104628717D01*
X142568884Y-104599975D01*
X142568882Y-104599972D01*
X142568882Y-104599970D01*
X142499834Y-104464456D01*
X142479524Y-104424595D01*
X142363828Y-104265354D01*
X142224646Y-104126172D01*
X142065405Y-104010476D01*
X141890029Y-103921117D01*
X141702826Y-103860290D01*
X141508422Y-103829500D01*
X141508417Y-103829500D01*
X141311583Y-103829500D01*
X141311578Y-103829500D01*
X141117173Y-103860290D01*
X140929970Y-103921117D01*
X140754594Y-104010476D01*
X140663741Y-104076485D01*
X140595354Y-104126172D01*
X140595352Y-104126174D01*
X140595351Y-104126174D01*
X140456174Y-104265351D01*
X140456174Y-104265352D01*
X140456172Y-104265354D01*
X140446215Y-104279059D01*
X140340476Y-104424594D01*
X140251117Y-104599970D01*
X140190290Y-104787173D01*
X140159500Y-104981577D01*
X136610500Y-104981577D01*
X136610500Y-92951577D01*
X140159500Y-92951577D01*
X140159500Y-93948422D01*
X140190290Y-94142826D01*
X140251117Y-94330029D01*
X140340476Y-94505405D01*
X140456172Y-94664646D01*
X140595354Y-94803828D01*
X140754595Y-94919524D01*
X140795349Y-94940289D01*
X140929970Y-95008882D01*
X140929972Y-95008882D01*
X140929975Y-95008884D01*
X140952624Y-95016243D01*
X141117173Y-95069709D01*
X141311578Y-95100500D01*
X141311583Y-95100500D01*
X141508422Y-95100500D01*
X141702826Y-95069709D01*
X141727555Y-95061674D01*
X141890025Y-95008884D01*
X142065405Y-94919524D01*
X142224646Y-94803828D01*
X142363828Y-94664646D01*
X142479524Y-94505405D01*
X142568884Y-94330025D01*
X142629709Y-94142826D01*
X142632198Y-94127109D01*
X142660500Y-93948422D01*
X142660500Y-92951577D01*
X142629709Y-92757173D01*
X142568882Y-92569970D01*
X142479523Y-92394594D01*
X142452869Y-92357908D01*
X142363828Y-92235354D01*
X142224646Y-92096172D01*
X142065405Y-91980476D01*
X141890029Y-91891117D01*
X141702826Y-91830290D01*
X141508422Y-91799500D01*
X141508417Y-91799500D01*
X141311583Y-91799500D01*
X141311578Y-91799500D01*
X141117173Y-91830290D01*
X140929970Y-91891117D01*
X140754594Y-91980476D01*
X140663741Y-92046485D01*
X140595354Y-92096172D01*
X140595352Y-92096174D01*
X140595351Y-92096174D01*
X140456174Y-92235351D01*
X140456174Y-92235352D01*
X140456172Y-92235354D01*
X140447873Y-92246777D01*
X140340476Y-92394594D01*
X140251117Y-92569970D01*
X140190290Y-92757173D01*
X140159500Y-92951577D01*
X136610500Y-92951577D01*
X136610500Y-91549983D01*
X146434500Y-91549983D01*
X146434500Y-92850001D01*
X146434501Y-92850018D01*
X146445000Y-92952796D01*
X146445001Y-92952799D01*
X146490394Y-93089785D01*
X146500186Y-93119334D01*
X146592288Y-93268656D01*
X146716344Y-93392712D01*
X146840270Y-93469150D01*
X146871120Y-93488178D01*
X146917845Y-93540126D01*
X146929068Y-93609088D01*
X146901224Y-93673171D01*
X146893706Y-93681398D01*
X146754889Y-93820215D01*
X146629951Y-93992179D01*
X146533444Y-94181585D01*
X146467753Y-94383760D01*
X146434500Y-94593713D01*
X146434500Y-94806286D01*
X146455724Y-94940293D01*
X146467754Y-95016243D01*
X146518585Y-95172685D01*
X146533444Y-95218414D01*
X146629951Y-95407820D01*
X146754890Y-95579786D01*
X146905213Y-95730109D01*
X147077179Y-95855048D01*
X147077181Y-95855049D01*
X147077184Y-95855051D01*
X147266588Y-95951557D01*
X147468757Y-96017246D01*
X147678713Y-96050500D01*
X147678714Y-96050500D01*
X148141286Y-96050500D01*
X148141287Y-96050500D01*
X148351243Y-96017246D01*
X148553412Y-95951557D01*
X148742816Y-95855051D01*
X148764789Y-95839086D01*
X148914786Y-95730109D01*
X148914788Y-95730106D01*
X148914792Y-95730104D01*
X149065104Y-95579792D01*
X149065106Y-95579788D01*
X149065109Y-95579786D01*
X149190048Y-95407820D01*
X149190047Y-95407820D01*
X149190051Y-95407816D01*
X149286557Y-95218412D01*
X149352246Y-95016243D01*
X149385500Y-94806287D01*
X149385500Y-94593713D01*
X149352246Y-94383757D01*
X149286557Y-94181588D01*
X149190051Y-93992184D01*
X149190049Y-93992181D01*
X149190048Y-93992179D01*
X149065109Y-93820213D01*
X148926294Y-93681398D01*
X148892809Y-93620075D01*
X148897793Y-93550383D01*
X148939665Y-93494450D01*
X148948879Y-93488178D01*
X148954331Y-93484814D01*
X148954334Y-93484814D01*
X149103656Y-93392712D01*
X149227712Y-93268656D01*
X149319814Y-93119334D01*
X149373988Y-92955849D01*
X151925000Y-92955849D01*
X151925000Y-92972500D01*
X152650000Y-92972500D01*
X153150000Y-92972500D01*
X153874999Y-92972500D01*
X153874999Y-92965849D01*
X156665000Y-92965849D01*
X156665000Y-92982500D01*
X157390000Y-92982500D01*
X157890000Y-92982500D01*
X158614999Y-92982500D01*
X158614999Y-92965864D01*
X158614998Y-92965847D01*
X158613721Y-92953349D01*
X159035000Y-92953349D01*
X159035000Y-92970000D01*
X159760000Y-92970000D01*
X160260000Y-92970000D01*
X160984999Y-92970000D01*
X160984999Y-92953364D01*
X160984998Y-92953349D01*
X161405000Y-92953349D01*
X161405000Y-92970000D01*
X162130000Y-92970000D01*
X162630000Y-92970000D01*
X163354999Y-92970000D01*
X163354999Y-92965849D01*
X163785000Y-92965849D01*
X163785000Y-92982500D01*
X164510000Y-92982500D01*
X165010000Y-92982500D01*
X165734999Y-92982500D01*
X165734999Y-92965864D01*
X165734998Y-92965847D01*
X165724943Y-92867416D01*
X165672093Y-92707927D01*
X165672091Y-92707922D01*
X165583885Y-92564919D01*
X165465080Y-92446114D01*
X165322077Y-92357908D01*
X165322072Y-92357906D01*
X165162583Y-92305057D01*
X165064150Y-92295000D01*
X165010000Y-92295000D01*
X165010000Y-92982500D01*
X164510000Y-92982500D01*
X164510000Y-92295000D01*
X164509999Y-92294999D01*
X164455864Y-92295000D01*
X164455847Y-92295001D01*
X164357415Y-92305057D01*
X164197927Y-92357906D01*
X164197922Y-92357908D01*
X164054919Y-92446114D01*
X163936114Y-92564919D01*
X163847908Y-92707922D01*
X163847906Y-92707927D01*
X163795057Y-92867416D01*
X163785000Y-92965849D01*
X163354999Y-92965849D01*
X163354999Y-92953364D01*
X163354998Y-92953347D01*
X163344943Y-92854916D01*
X163292093Y-92695427D01*
X163292091Y-92695422D01*
X163203885Y-92552419D01*
X163085080Y-92433614D01*
X162942077Y-92345408D01*
X162942072Y-92345406D01*
X162782583Y-92292557D01*
X162684150Y-92282500D01*
X162630000Y-92282500D01*
X162630000Y-92970000D01*
X162130000Y-92970000D01*
X162130000Y-92282500D01*
X162129999Y-92282499D01*
X162075864Y-92282500D01*
X162075847Y-92282501D01*
X161977415Y-92292557D01*
X161817927Y-92345406D01*
X161817922Y-92345408D01*
X161674919Y-92433614D01*
X161556114Y-92552419D01*
X161467908Y-92695422D01*
X161467906Y-92695427D01*
X161415057Y-92854916D01*
X161405000Y-92953349D01*
X160984998Y-92953349D01*
X160984998Y-92953347D01*
X160974943Y-92854916D01*
X160922093Y-92695427D01*
X160922091Y-92695422D01*
X160833885Y-92552419D01*
X160715080Y-92433614D01*
X160572077Y-92345408D01*
X160572072Y-92345406D01*
X160412583Y-92292557D01*
X160314150Y-92282500D01*
X160260000Y-92282500D01*
X160260000Y-92970000D01*
X159760000Y-92970000D01*
X159760000Y-92282500D01*
X159759999Y-92282499D01*
X159705864Y-92282500D01*
X159705847Y-92282501D01*
X159607415Y-92292557D01*
X159447927Y-92345406D01*
X159447922Y-92345408D01*
X159304919Y-92433614D01*
X159186114Y-92552419D01*
X159097908Y-92695422D01*
X159097906Y-92695427D01*
X159045057Y-92854916D01*
X159035000Y-92953349D01*
X158613721Y-92953349D01*
X158604943Y-92867416D01*
X158552093Y-92707927D01*
X158552091Y-92707922D01*
X158463885Y-92564919D01*
X158345080Y-92446114D01*
X158202077Y-92357908D01*
X158202072Y-92357906D01*
X158042583Y-92305057D01*
X157944150Y-92295000D01*
X157890000Y-92295000D01*
X157890000Y-92982500D01*
X157390000Y-92982500D01*
X157390000Y-92295000D01*
X157389999Y-92294999D01*
X157335864Y-92295000D01*
X157335847Y-92295001D01*
X157237415Y-92305057D01*
X157077927Y-92357906D01*
X157077922Y-92357908D01*
X156934919Y-92446114D01*
X156816114Y-92564919D01*
X156727908Y-92707922D01*
X156727906Y-92707927D01*
X156675057Y-92867416D01*
X156665000Y-92965849D01*
X153874999Y-92965849D01*
X153874999Y-92955864D01*
X153874998Y-92955847D01*
X153872955Y-92935849D01*
X154295000Y-92935849D01*
X154295000Y-92952500D01*
X155020000Y-92952500D01*
X155520000Y-92952500D01*
X156244999Y-92952500D01*
X156244999Y-92935864D01*
X156244998Y-92935847D01*
X156234943Y-92837416D01*
X156182093Y-92677927D01*
X156182091Y-92677922D01*
X156093885Y-92534919D01*
X155975080Y-92416114D01*
X155832077Y-92327908D01*
X155832072Y-92327906D01*
X155672583Y-92275057D01*
X155574150Y-92265000D01*
X155520000Y-92265000D01*
X155520000Y-92952500D01*
X155020000Y-92952500D01*
X155020000Y-92265000D01*
X155019999Y-92264999D01*
X154965864Y-92265000D01*
X154965847Y-92265001D01*
X154867415Y-92275057D01*
X154707927Y-92327906D01*
X154707922Y-92327908D01*
X154564919Y-92416114D01*
X154446114Y-92534919D01*
X154357908Y-92677922D01*
X154357906Y-92677927D01*
X154305057Y-92837416D01*
X154295000Y-92935849D01*
X153872955Y-92935849D01*
X153864943Y-92857416D01*
X153812093Y-92697927D01*
X153812091Y-92697922D01*
X153723885Y-92554919D01*
X153605080Y-92436114D01*
X153462077Y-92347908D01*
X153462072Y-92347906D01*
X153302583Y-92295057D01*
X153204150Y-92285000D01*
X153150000Y-92285000D01*
X153150000Y-92972500D01*
X152650000Y-92972500D01*
X152650000Y-92285000D01*
X152649999Y-92284999D01*
X152595864Y-92285000D01*
X152595847Y-92285001D01*
X152497415Y-92295057D01*
X152337927Y-92347906D01*
X152337922Y-92347908D01*
X152194919Y-92436114D01*
X152076114Y-92554919D01*
X151987908Y-92697922D01*
X151987906Y-92697927D01*
X151935057Y-92857416D01*
X151925000Y-92955849D01*
X149373988Y-92955849D01*
X149374999Y-92952797D01*
X149385500Y-92850009D01*
X149385499Y-91549992D01*
X149374999Y-91447203D01*
X149319814Y-91280666D01*
X149227712Y-91131344D01*
X149103656Y-91007288D01*
X148954334Y-90915186D01*
X148787797Y-90860001D01*
X148787795Y-90860000D01*
X148685010Y-90849500D01*
X147134998Y-90849500D01*
X147134981Y-90849501D01*
X147032203Y-90860000D01*
X147032200Y-90860001D01*
X146865668Y-90915185D01*
X146865663Y-90915187D01*
X146716342Y-91007289D01*
X146592289Y-91131342D01*
X146500187Y-91280663D01*
X146500186Y-91280666D01*
X146445001Y-91447203D01*
X146445001Y-91447204D01*
X146445000Y-91447204D01*
X146434500Y-91549983D01*
X136610500Y-91549983D01*
X136610500Y-89444500D01*
X136630185Y-89377461D01*
X136682989Y-89331706D01*
X136734500Y-89320500D01*
X180234978Y-89320500D01*
X180302017Y-89340185D01*
G37*
%TD.AperFunction*%
%TA.AperFunction,Conductor*%
G36*
X165802786Y-107115185D02*
G01*
X165848541Y-107167989D01*
X165848821Y-107168605D01*
X165851521Y-107174603D01*
X165851522Y-107174606D01*
X165927069Y-107299575D01*
X165939530Y-107320188D01*
X166059811Y-107440469D01*
X166059813Y-107440470D01*
X166059815Y-107440472D01*
X166205394Y-107528478D01*
X166367804Y-107579086D01*
X166438384Y-107585500D01*
X166438387Y-107585500D01*
X167101613Y-107585500D01*
X167101616Y-107585500D01*
X167172196Y-107579086D01*
X167334606Y-107528478D01*
X167480185Y-107440472D01*
X167543839Y-107376817D01*
X167605160Y-107343334D01*
X167631519Y-107340500D01*
X168659281Y-107340500D01*
X168726320Y-107360185D01*
X168769765Y-107408205D01*
X168789947Y-107447814D01*
X168789948Y-107447815D01*
X168914890Y-107619786D01*
X169053705Y-107758601D01*
X169087190Y-107819924D01*
X169082206Y-107889616D01*
X169040334Y-107945549D01*
X169031121Y-107951821D01*
X168876342Y-108047289D01*
X168752289Y-108171342D01*
X168660187Y-108320663D01*
X168660185Y-108320668D01*
X168658890Y-108324577D01*
X168605001Y-108487203D01*
X168605001Y-108487204D01*
X168605000Y-108487204D01*
X168594500Y-108589983D01*
X168594500Y-109814902D01*
X168574815Y-109881941D01*
X168558181Y-109902583D01*
X166060084Y-112400681D01*
X165998761Y-112434166D01*
X165972403Y-112437000D01*
X161949000Y-112437000D01*
X161881961Y-112417315D01*
X161836206Y-112364511D01*
X161832506Y-112347506D01*
X161825000Y-112340000D01*
X159875001Y-112340000D01*
X159863777Y-112351223D01*
X159855316Y-112380039D01*
X159802512Y-112425794D01*
X159751001Y-112437000D01*
X159314500Y-112437000D01*
X159247461Y-112417315D01*
X159201706Y-112364511D01*
X159190500Y-112313000D01*
X159190500Y-112221813D01*
X159190499Y-112221798D01*
X159187598Y-112184932D01*
X159187597Y-112184926D01*
X159141745Y-112027106D01*
X159141744Y-112027103D01*
X159141744Y-112027102D01*
X159058081Y-111885635D01*
X159058079Y-111885633D01*
X159058076Y-111885629D01*
X158941870Y-111769423D01*
X158941862Y-111769417D01*
X158800396Y-111685755D01*
X158800393Y-111685754D01*
X158642573Y-111639902D01*
X158642567Y-111639901D01*
X158605701Y-111637000D01*
X158605694Y-111637000D01*
X157449306Y-111637000D01*
X157449298Y-111637000D01*
X157412432Y-111639901D01*
X157412426Y-111639902D01*
X157254606Y-111685754D01*
X157254603Y-111685755D01*
X157113137Y-111769417D01*
X157106969Y-111774202D01*
X157105664Y-111772519D01*
X157053954Y-111800746D01*
X156984263Y-111795751D01*
X156936558Y-111763747D01*
X156912296Y-111737500D01*
X156646815Y-111737500D01*
X156583694Y-111720232D01*
X156525396Y-111685755D01*
X156525393Y-111685754D01*
X156367573Y-111639902D01*
X156367567Y-111639901D01*
X156330701Y-111637000D01*
X156330694Y-111637000D01*
X155626500Y-111637000D01*
X155559461Y-111617315D01*
X155513706Y-111564511D01*
X155502500Y-111513000D01*
X155502500Y-111462000D01*
X155522185Y-111394961D01*
X155574989Y-111349206D01*
X155626500Y-111338000D01*
X156330686Y-111338000D01*
X156330694Y-111338000D01*
X156367569Y-111335098D01*
X156367571Y-111335097D01*
X156367573Y-111335097D01*
X156409191Y-111323005D01*
X156525398Y-111289244D01*
X156583694Y-111254768D01*
X156646815Y-111237500D01*
X156912294Y-111237500D01*
X156936557Y-111211252D01*
X156996518Y-111175385D01*
X157066352Y-111177629D01*
X157106012Y-111202030D01*
X157106969Y-111200798D01*
X157113132Y-111205578D01*
X157113135Y-111205581D01*
X157254602Y-111289244D01*
X157296224Y-111301336D01*
X157412426Y-111335097D01*
X157412429Y-111335097D01*
X157412431Y-111335098D01*
X157449306Y-111338000D01*
X157449314Y-111338000D01*
X158605686Y-111338000D01*
X158605694Y-111338000D01*
X158642569Y-111335098D01*
X158642571Y-111335097D01*
X158642573Y-111335097D01*
X158684191Y-111323005D01*
X158800398Y-111289244D01*
X158941865Y-111205581D01*
X158948042Y-111199404D01*
X158970628Y-111176819D01*
X159031951Y-111143334D01*
X159058309Y-111140500D01*
X159909996Y-111140500D01*
X159977035Y-111160185D01*
X160015534Y-111199403D01*
X160019342Y-111205576D01*
X160027031Y-111218043D01*
X160036660Y-111227672D01*
X160070145Y-111288995D01*
X160065161Y-111358687D01*
X160036663Y-111403031D01*
X160027428Y-111412265D01*
X160027424Y-111412271D01*
X159938457Y-111556507D01*
X159938452Y-111556518D01*
X159885144Y-111717393D01*
X159875000Y-111816677D01*
X159875000Y-111840000D01*
X161824999Y-111840000D01*
X161824999Y-111816692D01*
X161824998Y-111816677D01*
X161814855Y-111717392D01*
X161761547Y-111556518D01*
X161761542Y-111556507D01*
X161672575Y-111412271D01*
X161672572Y-111412267D01*
X161663339Y-111403034D01*
X161629854Y-111341711D01*
X161634838Y-111272019D01*
X161663343Y-111227668D01*
X161672968Y-111218044D01*
X161762003Y-111073697D01*
X161815349Y-110912708D01*
X161825500Y-110813345D01*
X161825499Y-110266656D01*
X161824987Y-110261648D01*
X161815349Y-110167292D01*
X161815348Y-110167289D01*
X161813692Y-110162292D01*
X161762003Y-110006303D01*
X161761999Y-110006297D01*
X161761998Y-110006294D01*
X161672970Y-109861959D01*
X161672969Y-109861958D01*
X161672968Y-109861956D01*
X161553044Y-109742032D01*
X161553043Y-109742031D01*
X161553042Y-109742030D01*
X161509402Y-109715112D01*
X161462678Y-109663163D01*
X161450500Y-109609574D01*
X161450500Y-108678731D01*
X161470185Y-108611692D01*
X161522989Y-108565937D01*
X161592147Y-108555993D01*
X161609102Y-108559657D01*
X161617508Y-108562099D01*
X161617510Y-108562100D01*
X161654350Y-108564999D01*
X161654366Y-108565000D01*
X162295000Y-108565000D01*
X162795000Y-108565000D01*
X163435634Y-108565000D01*
X163435649Y-108564999D01*
X163472489Y-108562100D01*
X163472495Y-108562099D01*
X163630193Y-108516283D01*
X163630196Y-108516282D01*
X163771552Y-108432685D01*
X163771561Y-108432678D01*
X163887678Y-108316561D01*
X163887685Y-108316552D01*
X163971281Y-108175198D01*
X164017100Y-108017486D01*
X164017295Y-108015001D01*
X164017295Y-108015000D01*
X162795000Y-108015000D01*
X162795000Y-108565000D01*
X162295000Y-108565000D01*
X162295000Y-107639000D01*
X162314685Y-107571961D01*
X162367489Y-107526206D01*
X162419000Y-107515000D01*
X164017295Y-107515000D01*
X164017295Y-107514998D01*
X164017100Y-107512513D01*
X163971281Y-107354801D01*
X163928594Y-107282621D01*
X163911411Y-107214897D01*
X163933571Y-107148635D01*
X163988037Y-107104871D01*
X164035326Y-107095500D01*
X165735747Y-107095500D01*
X165802786Y-107115185D01*
G37*
%TD.AperFunction*%
%TA.AperFunction,Conductor*%
G36*
X145898834Y-104692915D02*
G01*
X145954767Y-104734787D01*
X145979184Y-104800251D01*
X145979500Y-104809097D01*
X145979500Y-105313330D01*
X145979499Y-105313348D01*
X145979499Y-105479054D01*
X145979498Y-105479054D01*
X146020423Y-105631785D01*
X146049358Y-105681900D01*
X146049359Y-105681904D01*
X146049360Y-105681904D01*
X146099479Y-105768714D01*
X146099481Y-105768717D01*
X146218349Y-105887585D01*
X146218355Y-105887590D01*
X146481897Y-106151132D01*
X146515382Y-106212455D01*
X146512147Y-106277129D01*
X146481962Y-106370029D01*
X146467753Y-106413760D01*
X146447481Y-106541753D01*
X146434500Y-106623713D01*
X146434500Y-106836287D01*
X146444534Y-106899644D01*
X146467573Y-107045104D01*
X146467754Y-107046243D01*
X146524380Y-107220520D01*
X146533444Y-107248414D01*
X146629951Y-107437820D01*
X146754890Y-107609786D01*
X146905209Y-107760105D01*
X146905214Y-107760109D01*
X147070218Y-107879991D01*
X147112884Y-107935320D01*
X147118863Y-108004934D01*
X147086258Y-108066729D01*
X147070218Y-108080627D01*
X146905540Y-108200272D01*
X146905535Y-108200276D01*
X146755276Y-108350535D01*
X146755272Y-108350540D01*
X146630379Y-108522442D01*
X146533904Y-108711782D01*
X146468242Y-108913870D01*
X146468242Y-108913873D01*
X146457769Y-108980000D01*
X147505854Y-108980000D01*
X147467370Y-109046657D01*
X147435000Y-109167465D01*
X147435000Y-109292535D01*
X147467370Y-109413343D01*
X147505854Y-109480000D01*
X146457769Y-109480000D01*
X146468242Y-109546126D01*
X146468242Y-109546129D01*
X146533904Y-109748217D01*
X146630379Y-109937557D01*
X146755272Y-110109459D01*
X146755276Y-110109464D01*
X146905535Y-110259723D01*
X146905540Y-110259727D01*
X147077442Y-110384620D01*
X147156719Y-110425015D01*
X147207515Y-110472990D01*
X147224310Y-110540811D01*
X147201772Y-110606946D01*
X147147057Y-110650397D01*
X147100424Y-110659500D01*
X146950098Y-110659500D01*
X146883059Y-110639815D01*
X146862417Y-110623181D01*
X145316819Y-109077583D01*
X145283334Y-109016260D01*
X145280500Y-108989902D01*
X145280500Y-105260097D01*
X145300185Y-105193058D01*
X145316819Y-105172416D01*
X145767819Y-104721416D01*
X145829142Y-104687931D01*
X145898834Y-104692915D01*
G37*
%TD.AperFunction*%
%TA.AperFunction,Conductor*%
G36*
X149545028Y-106734529D02*
G01*
X149596079Y-106765314D01*
X150960139Y-108129374D01*
X150960149Y-108129385D01*
X150964479Y-108133715D01*
X150964480Y-108133716D01*
X151076284Y-108245520D01*
X151163095Y-108295639D01*
X151163097Y-108295641D01*
X151199316Y-108316552D01*
X151213215Y-108324577D01*
X151365943Y-108365501D01*
X151365946Y-108365501D01*
X151531653Y-108365501D01*
X151531669Y-108365500D01*
X156249192Y-108365500D01*
X156316231Y-108385185D01*
X156336874Y-108401820D01*
X156368129Y-108433076D01*
X156368133Y-108433079D01*
X156368135Y-108433081D01*
X156509602Y-108516744D01*
X156534577Y-108524000D01*
X156667426Y-108562597D01*
X156667429Y-108562597D01*
X156667431Y-108562598D01*
X156704306Y-108565500D01*
X156704314Y-108565500D01*
X158485686Y-108565500D01*
X158485694Y-108565500D01*
X158522569Y-108562598D01*
X158522571Y-108562597D01*
X158522573Y-108562597D01*
X158564191Y-108550505D01*
X158680398Y-108516744D01*
X158821865Y-108433081D01*
X158821870Y-108433075D01*
X158828031Y-108428298D01*
X158829603Y-108430325D01*
X158879951Y-108402834D01*
X158906309Y-108400000D01*
X160125500Y-108400000D01*
X160192539Y-108419685D01*
X160238294Y-108472489D01*
X160249500Y-108524000D01*
X160249500Y-109609574D01*
X160229815Y-109676613D01*
X160190598Y-109715112D01*
X160146957Y-109742030D01*
X160027030Y-109861958D01*
X160015535Y-109880596D01*
X159963588Y-109927321D01*
X159909996Y-109939500D01*
X159063308Y-109939500D01*
X158996269Y-109919815D01*
X158975626Y-109903180D01*
X158941870Y-109869423D01*
X158941862Y-109869417D01*
X158800396Y-109785755D01*
X158800393Y-109785754D01*
X158642573Y-109739902D01*
X158642567Y-109739901D01*
X158605701Y-109737000D01*
X158605694Y-109737000D01*
X157449306Y-109737000D01*
X157449298Y-109737000D01*
X157412432Y-109739901D01*
X157412426Y-109739902D01*
X157254606Y-109785754D01*
X157254603Y-109785755D01*
X157113137Y-109869417D01*
X157113129Y-109869423D01*
X156996923Y-109985629D01*
X156996914Y-109985640D01*
X156996729Y-109985955D01*
X156996519Y-109986150D01*
X156992139Y-109991798D01*
X156991227Y-109991091D01*
X156945657Y-110033636D01*
X156876915Y-110046137D01*
X156812327Y-110019488D01*
X156788143Y-109991578D01*
X156787861Y-109991798D01*
X156783823Y-109986592D01*
X156783271Y-109985955D01*
X156783085Y-109985640D01*
X156783076Y-109985629D01*
X156666870Y-109869423D01*
X156666862Y-109869417D01*
X156525396Y-109785755D01*
X156525393Y-109785754D01*
X156367573Y-109739902D01*
X156367567Y-109739901D01*
X156330701Y-109737000D01*
X156330694Y-109737000D01*
X155174306Y-109737000D01*
X155174298Y-109737000D01*
X155137432Y-109739901D01*
X155137426Y-109739902D01*
X154979606Y-109785754D01*
X154979603Y-109785755D01*
X154838137Y-109869417D01*
X154838129Y-109869423D01*
X154809372Y-109898181D01*
X154748049Y-109931666D01*
X154721691Y-109934500D01*
X154150004Y-109934500D01*
X154082965Y-109914815D01*
X154044465Y-109875596D01*
X154032968Y-109856956D01*
X153913044Y-109737032D01*
X153913040Y-109737029D01*
X153768705Y-109648001D01*
X153768699Y-109647998D01*
X153768697Y-109647997D01*
X153768694Y-109647996D01*
X153607709Y-109594651D01*
X153508346Y-109584500D01*
X152911662Y-109584500D01*
X152911644Y-109584501D01*
X152812292Y-109594650D01*
X152812289Y-109594651D01*
X152651305Y-109647996D01*
X152651294Y-109648001D01*
X152506959Y-109737029D01*
X152506955Y-109737032D01*
X152387032Y-109856955D01*
X152387029Y-109856959D01*
X152298001Y-110001294D01*
X152297996Y-110001305D01*
X152244651Y-110162290D01*
X152234500Y-110261648D01*
X152234500Y-110261655D01*
X152234500Y-110454297D01*
X152234501Y-110535500D01*
X152214817Y-110602539D01*
X152162013Y-110648294D01*
X152110501Y-110659500D01*
X148719576Y-110659500D01*
X148652537Y-110639815D01*
X148606782Y-110587011D01*
X148596838Y-110517853D01*
X148625863Y-110454297D01*
X148663281Y-110425015D01*
X148742557Y-110384620D01*
X148914459Y-110259727D01*
X148914464Y-110259723D01*
X149064723Y-110109464D01*
X149064727Y-110109459D01*
X149189620Y-109937557D01*
X149286095Y-109748217D01*
X149351757Y-109546129D01*
X149351757Y-109546126D01*
X149362231Y-109480000D01*
X148314146Y-109480000D01*
X148352630Y-109413343D01*
X148385000Y-109292535D01*
X148385000Y-109167465D01*
X148352630Y-109046657D01*
X148314146Y-108980000D01*
X149362231Y-108980000D01*
X149351757Y-108913873D01*
X149351757Y-108913870D01*
X149286095Y-108711782D01*
X149189620Y-108522442D01*
X149064727Y-108350540D01*
X149064723Y-108350535D01*
X148914464Y-108200276D01*
X148914459Y-108200272D01*
X148749781Y-108080627D01*
X148707115Y-108025297D01*
X148701136Y-107955684D01*
X148733741Y-107893889D01*
X148749776Y-107879994D01*
X148914792Y-107760104D01*
X149065104Y-107609792D01*
X149065106Y-107609788D01*
X149065109Y-107609786D01*
X149190048Y-107437820D01*
X149190047Y-107437820D01*
X149190051Y-107437816D01*
X149286557Y-107248412D01*
X149352246Y-107046243D01*
X149352427Y-107045104D01*
X149374553Y-106905400D01*
X149385500Y-106836287D01*
X149385500Y-106836281D01*
X149385925Y-106833598D01*
X149415854Y-106770463D01*
X149475165Y-106733531D01*
X149545028Y-106734529D01*
G37*
%TD.AperFunction*%
%TD*%
M02*
