%TF.GenerationSoftware,KiCad,Pcbnew,8.0.3*%
%TF.CreationDate,2024-06-27T16:33:06+09:00*%
%TF.ProjectId,UART-RS485 Read only,55415254-2d52-4533-9438-352052656164,rev?*%
%TF.SameCoordinates,Original*%
%TF.FileFunction,Legend,Bot*%
%TF.FilePolarity,Positive*%
%FSLAX46Y46*%
G04 Gerber Fmt 4.6, Leading zero omitted, Abs format (unit mm)*
G04 Created by KiCad (PCBNEW 8.0.3) date 2024-06-27 16:33:06*
%MOMM*%
%LPD*%
G01*
G04 APERTURE LIST*
%ADD10C,0.100000*%
%ADD11C,0.200000*%
%ADD12C,0.000000*%
G04 APERTURE END LIST*
D10*
X166126115Y-110532419D02*
X166126115Y-109532419D01*
X166126115Y-109532419D02*
X165888020Y-109532419D01*
X165888020Y-109532419D02*
X165745163Y-109580038D01*
X165745163Y-109580038D02*
X165649925Y-109675276D01*
X165649925Y-109675276D02*
X165602306Y-109770514D01*
X165602306Y-109770514D02*
X165554687Y-109960990D01*
X165554687Y-109960990D02*
X165554687Y-110103847D01*
X165554687Y-110103847D02*
X165602306Y-110294323D01*
X165602306Y-110294323D02*
X165649925Y-110389561D01*
X165649925Y-110389561D02*
X165745163Y-110484800D01*
X165745163Y-110484800D02*
X165888020Y-110532419D01*
X165888020Y-110532419D02*
X166126115Y-110532419D01*
X164745163Y-110484800D02*
X164840401Y-110532419D01*
X164840401Y-110532419D02*
X165030877Y-110532419D01*
X165030877Y-110532419D02*
X165126115Y-110484800D01*
X165126115Y-110484800D02*
X165173734Y-110389561D01*
X165173734Y-110389561D02*
X165173734Y-110008609D01*
X165173734Y-110008609D02*
X165126115Y-109913371D01*
X165126115Y-109913371D02*
X165030877Y-109865752D01*
X165030877Y-109865752D02*
X164840401Y-109865752D01*
X164840401Y-109865752D02*
X164745163Y-109913371D01*
X164745163Y-109913371D02*
X164697544Y-110008609D01*
X164697544Y-110008609D02*
X164697544Y-110103847D01*
X164697544Y-110103847D02*
X165173734Y-110199085D01*
X164316591Y-110484800D02*
X164221353Y-110532419D01*
X164221353Y-110532419D02*
X164030877Y-110532419D01*
X164030877Y-110532419D02*
X163935639Y-110484800D01*
X163935639Y-110484800D02*
X163888020Y-110389561D01*
X163888020Y-110389561D02*
X163888020Y-110341942D01*
X163888020Y-110341942D02*
X163935639Y-110246704D01*
X163935639Y-110246704D02*
X164030877Y-110199085D01*
X164030877Y-110199085D02*
X164173734Y-110199085D01*
X164173734Y-110199085D02*
X164268972Y-110151466D01*
X164268972Y-110151466D02*
X164316591Y-110056228D01*
X164316591Y-110056228D02*
X164316591Y-110008609D01*
X164316591Y-110008609D02*
X164268972Y-109913371D01*
X164268972Y-109913371D02*
X164173734Y-109865752D01*
X164173734Y-109865752D02*
X164030877Y-109865752D01*
X164030877Y-109865752D02*
X163935639Y-109913371D01*
X163459448Y-110532419D02*
X163459448Y-109865752D01*
X163459448Y-109532419D02*
X163507067Y-109580038D01*
X163507067Y-109580038D02*
X163459448Y-109627657D01*
X163459448Y-109627657D02*
X163411829Y-109580038D01*
X163411829Y-109580038D02*
X163459448Y-109532419D01*
X163459448Y-109532419D02*
X163459448Y-109627657D01*
X162983258Y-109865752D02*
X162983258Y-110532419D01*
X162983258Y-109960990D02*
X162935639Y-109913371D01*
X162935639Y-109913371D02*
X162840401Y-109865752D01*
X162840401Y-109865752D02*
X162697544Y-109865752D01*
X162697544Y-109865752D02*
X162602306Y-109913371D01*
X162602306Y-109913371D02*
X162554687Y-110008609D01*
X162554687Y-110008609D02*
X162554687Y-110532419D01*
X161697544Y-110484800D02*
X161792782Y-110532419D01*
X161792782Y-110532419D02*
X161983258Y-110532419D01*
X161983258Y-110532419D02*
X162078496Y-110484800D01*
X162078496Y-110484800D02*
X162126115Y-110389561D01*
X162126115Y-110389561D02*
X162126115Y-110008609D01*
X162126115Y-110008609D02*
X162078496Y-109913371D01*
X162078496Y-109913371D02*
X161983258Y-109865752D01*
X161983258Y-109865752D02*
X161792782Y-109865752D01*
X161792782Y-109865752D02*
X161697544Y-109913371D01*
X161697544Y-109913371D02*
X161649925Y-110008609D01*
X161649925Y-110008609D02*
X161649925Y-110103847D01*
X161649925Y-110103847D02*
X162126115Y-110199085D01*
X160792782Y-110532419D02*
X160792782Y-109532419D01*
X160792782Y-110484800D02*
X160888020Y-110532419D01*
X160888020Y-110532419D02*
X161078496Y-110532419D01*
X161078496Y-110532419D02*
X161173734Y-110484800D01*
X161173734Y-110484800D02*
X161221353Y-110437180D01*
X161221353Y-110437180D02*
X161268972Y-110341942D01*
X161268972Y-110341942D02*
X161268972Y-110056228D01*
X161268972Y-110056228D02*
X161221353Y-109960990D01*
X161221353Y-109960990D02*
X161173734Y-109913371D01*
X161173734Y-109913371D02*
X161078496Y-109865752D01*
X161078496Y-109865752D02*
X160888020Y-109865752D01*
X160888020Y-109865752D02*
X160792782Y-109913371D01*
X159554686Y-110532419D02*
X159554686Y-109532419D01*
X159554686Y-109913371D02*
X159459448Y-109865752D01*
X159459448Y-109865752D02*
X159268972Y-109865752D01*
X159268972Y-109865752D02*
X159173734Y-109913371D01*
X159173734Y-109913371D02*
X159126115Y-109960990D01*
X159126115Y-109960990D02*
X159078496Y-110056228D01*
X159078496Y-110056228D02*
X159078496Y-110341942D01*
X159078496Y-110341942D02*
X159126115Y-110437180D01*
X159126115Y-110437180D02*
X159173734Y-110484800D01*
X159173734Y-110484800D02*
X159268972Y-110532419D01*
X159268972Y-110532419D02*
X159459448Y-110532419D01*
X159459448Y-110532419D02*
X159554686Y-110484800D01*
X158745162Y-109865752D02*
X158507067Y-110532419D01*
X158268972Y-109865752D02*
X158507067Y-110532419D01*
X158507067Y-110532419D02*
X158602305Y-110770514D01*
X158602305Y-110770514D02*
X158649924Y-110818133D01*
X158649924Y-110818133D02*
X158745162Y-110865752D01*
X157126114Y-110532419D02*
X157126114Y-109532419D01*
X157126114Y-109532419D02*
X156554686Y-110532419D01*
X156554686Y-110532419D02*
X156554686Y-109532419D01*
D11*
X161009523Y-100332148D02*
X161057142Y-100379768D01*
X161057142Y-100379768D02*
X161199999Y-100427387D01*
X161199999Y-100427387D02*
X161295237Y-100427387D01*
X161295237Y-100427387D02*
X161438094Y-100379768D01*
X161438094Y-100379768D02*
X161533332Y-100284529D01*
X161533332Y-100284529D02*
X161580951Y-100189291D01*
X161580951Y-100189291D02*
X161628570Y-99998815D01*
X161628570Y-99998815D02*
X161628570Y-99855958D01*
X161628570Y-99855958D02*
X161580951Y-99665482D01*
X161580951Y-99665482D02*
X161533332Y-99570244D01*
X161533332Y-99570244D02*
X161438094Y-99475006D01*
X161438094Y-99475006D02*
X161295237Y-99427387D01*
X161295237Y-99427387D02*
X161199999Y-99427387D01*
X161199999Y-99427387D02*
X161057142Y-99475006D01*
X161057142Y-99475006D02*
X161009523Y-99522625D01*
X160628570Y-100141672D02*
X160152380Y-100141672D01*
X160723808Y-100427387D02*
X160390475Y-99427387D01*
X160390475Y-99427387D02*
X160057142Y-100427387D01*
X159723808Y-99427387D02*
X159723808Y-100236910D01*
X159723808Y-100236910D02*
X159676189Y-100332148D01*
X159676189Y-100332148D02*
X159628570Y-100379768D01*
X159628570Y-100379768D02*
X159533332Y-100427387D01*
X159533332Y-100427387D02*
X159342856Y-100427387D01*
X159342856Y-100427387D02*
X159247618Y-100379768D01*
X159247618Y-100379768D02*
X159199999Y-100332148D01*
X159199999Y-100332148D02*
X159152380Y-100236910D01*
X159152380Y-100236910D02*
X159152380Y-99427387D01*
X158819046Y-99427387D02*
X158247618Y-99427387D01*
X158533332Y-100427387D02*
X158533332Y-99427387D01*
X157914284Y-100427387D02*
X157914284Y-99427387D01*
X157247618Y-99427387D02*
X157057142Y-99427387D01*
X157057142Y-99427387D02*
X156961904Y-99475006D01*
X156961904Y-99475006D02*
X156866666Y-99570244D01*
X156866666Y-99570244D02*
X156819047Y-99760720D01*
X156819047Y-99760720D02*
X156819047Y-100094053D01*
X156819047Y-100094053D02*
X156866666Y-100284529D01*
X156866666Y-100284529D02*
X156961904Y-100379768D01*
X156961904Y-100379768D02*
X157057142Y-100427387D01*
X157057142Y-100427387D02*
X157247618Y-100427387D01*
X157247618Y-100427387D02*
X157342856Y-100379768D01*
X157342856Y-100379768D02*
X157438094Y-100284529D01*
X157438094Y-100284529D02*
X157485713Y-100094053D01*
X157485713Y-100094053D02*
X157485713Y-99760720D01*
X157485713Y-99760720D02*
X157438094Y-99570244D01*
X157438094Y-99570244D02*
X157342856Y-99475006D01*
X157342856Y-99475006D02*
X157247618Y-99427387D01*
X156390475Y-100427387D02*
X156390475Y-99427387D01*
X156390475Y-99427387D02*
X155819047Y-100427387D01*
X155819047Y-100427387D02*
X155819047Y-99427387D01*
X162557142Y-101037331D02*
X161985714Y-101037331D01*
X162271428Y-102037331D02*
X162271428Y-101037331D01*
X161652380Y-102037331D02*
X161652380Y-101037331D01*
X161223809Y-102037331D02*
X161223809Y-101513521D01*
X161223809Y-101513521D02*
X161271428Y-101418283D01*
X161271428Y-101418283D02*
X161366666Y-101370664D01*
X161366666Y-101370664D02*
X161509523Y-101370664D01*
X161509523Y-101370664D02*
X161604761Y-101418283D01*
X161604761Y-101418283D02*
X161652380Y-101465902D01*
X160747618Y-102037331D02*
X160747618Y-101370664D01*
X160747618Y-101037331D02*
X160795237Y-101084950D01*
X160795237Y-101084950D02*
X160747618Y-101132569D01*
X160747618Y-101132569D02*
X160699999Y-101084950D01*
X160699999Y-101084950D02*
X160747618Y-101037331D01*
X160747618Y-101037331D02*
X160747618Y-101132569D01*
X160319047Y-101989712D02*
X160223809Y-102037331D01*
X160223809Y-102037331D02*
X160033333Y-102037331D01*
X160033333Y-102037331D02*
X159938095Y-101989712D01*
X159938095Y-101989712D02*
X159890476Y-101894473D01*
X159890476Y-101894473D02*
X159890476Y-101846854D01*
X159890476Y-101846854D02*
X159938095Y-101751616D01*
X159938095Y-101751616D02*
X160033333Y-101703997D01*
X160033333Y-101703997D02*
X160176190Y-101703997D01*
X160176190Y-101703997D02*
X160271428Y-101656378D01*
X160271428Y-101656378D02*
X160319047Y-101561140D01*
X160319047Y-101561140D02*
X160319047Y-101513521D01*
X160319047Y-101513521D02*
X160271428Y-101418283D01*
X160271428Y-101418283D02*
X160176190Y-101370664D01*
X160176190Y-101370664D02*
X160033333Y-101370664D01*
X160033333Y-101370664D02*
X159938095Y-101418283D01*
X158699999Y-102037331D02*
X158699999Y-101037331D01*
X158699999Y-101418283D02*
X158604761Y-101370664D01*
X158604761Y-101370664D02*
X158414285Y-101370664D01*
X158414285Y-101370664D02*
X158319047Y-101418283D01*
X158319047Y-101418283D02*
X158271428Y-101465902D01*
X158271428Y-101465902D02*
X158223809Y-101561140D01*
X158223809Y-101561140D02*
X158223809Y-101846854D01*
X158223809Y-101846854D02*
X158271428Y-101942092D01*
X158271428Y-101942092D02*
X158319047Y-101989712D01*
X158319047Y-101989712D02*
X158414285Y-102037331D01*
X158414285Y-102037331D02*
X158604761Y-102037331D01*
X158604761Y-102037331D02*
X158699999Y-101989712D01*
X157652380Y-102037331D02*
X157747618Y-101989712D01*
X157747618Y-101989712D02*
X157795237Y-101942092D01*
X157795237Y-101942092D02*
X157842856Y-101846854D01*
X157842856Y-101846854D02*
X157842856Y-101561140D01*
X157842856Y-101561140D02*
X157795237Y-101465902D01*
X157795237Y-101465902D02*
X157747618Y-101418283D01*
X157747618Y-101418283D02*
X157652380Y-101370664D01*
X157652380Y-101370664D02*
X157509523Y-101370664D01*
X157509523Y-101370664D02*
X157414285Y-101418283D01*
X157414285Y-101418283D02*
X157366666Y-101465902D01*
X157366666Y-101465902D02*
X157319047Y-101561140D01*
X157319047Y-101561140D02*
X157319047Y-101846854D01*
X157319047Y-101846854D02*
X157366666Y-101942092D01*
X157366666Y-101942092D02*
X157414285Y-101989712D01*
X157414285Y-101989712D02*
X157509523Y-102037331D01*
X157509523Y-102037331D02*
X157652380Y-102037331D01*
X156890475Y-102037331D02*
X156890475Y-101370664D01*
X156890475Y-101561140D02*
X156842856Y-101465902D01*
X156842856Y-101465902D02*
X156795237Y-101418283D01*
X156795237Y-101418283D02*
X156699999Y-101370664D01*
X156699999Y-101370664D02*
X156604761Y-101370664D01*
X155890475Y-101989712D02*
X155985713Y-102037331D01*
X155985713Y-102037331D02*
X156176189Y-102037331D01*
X156176189Y-102037331D02*
X156271427Y-101989712D01*
X156271427Y-101989712D02*
X156319046Y-101894473D01*
X156319046Y-101894473D02*
X156319046Y-101513521D01*
X156319046Y-101513521D02*
X156271427Y-101418283D01*
X156271427Y-101418283D02*
X156176189Y-101370664D01*
X156176189Y-101370664D02*
X155985713Y-101370664D01*
X155985713Y-101370664D02*
X155890475Y-101418283D01*
X155890475Y-101418283D02*
X155842856Y-101513521D01*
X155842856Y-101513521D02*
X155842856Y-101608759D01*
X155842856Y-101608759D02*
X156319046Y-101703997D01*
X154985713Y-102037331D02*
X154985713Y-101037331D01*
X154985713Y-101989712D02*
X155080951Y-102037331D01*
X155080951Y-102037331D02*
X155271427Y-102037331D01*
X155271427Y-102037331D02*
X155366665Y-101989712D01*
X155366665Y-101989712D02*
X155414284Y-101942092D01*
X155414284Y-101942092D02*
X155461903Y-101846854D01*
X155461903Y-101846854D02*
X155461903Y-101561140D01*
X155461903Y-101561140D02*
X155414284Y-101465902D01*
X155414284Y-101465902D02*
X155366665Y-101418283D01*
X155366665Y-101418283D02*
X155271427Y-101370664D01*
X155271427Y-101370664D02*
X155080951Y-101370664D01*
X155080951Y-101370664D02*
X154985713Y-101418283D01*
X165509524Y-102647275D02*
X165509524Y-102837751D01*
X165128572Y-102647275D02*
X165128572Y-102837751D01*
X164271429Y-103599656D02*
X164366667Y-103647275D01*
X164366667Y-103647275D02*
X164557143Y-103647275D01*
X164557143Y-103647275D02*
X164652381Y-103599656D01*
X164652381Y-103599656D02*
X164700000Y-103552036D01*
X164700000Y-103552036D02*
X164747619Y-103456798D01*
X164747619Y-103456798D02*
X164747619Y-103171084D01*
X164747619Y-103171084D02*
X164700000Y-103075846D01*
X164700000Y-103075846D02*
X164652381Y-103028227D01*
X164652381Y-103028227D02*
X164557143Y-102980608D01*
X164557143Y-102980608D02*
X164366667Y-102980608D01*
X164366667Y-102980608D02*
X164271429Y-103028227D01*
X163414286Y-103647275D02*
X163414286Y-103123465D01*
X163414286Y-103123465D02*
X163461905Y-103028227D01*
X163461905Y-103028227D02*
X163557143Y-102980608D01*
X163557143Y-102980608D02*
X163747619Y-102980608D01*
X163747619Y-102980608D02*
X163842857Y-103028227D01*
X163414286Y-103599656D02*
X163509524Y-103647275D01*
X163509524Y-103647275D02*
X163747619Y-103647275D01*
X163747619Y-103647275D02*
X163842857Y-103599656D01*
X163842857Y-103599656D02*
X163890476Y-103504417D01*
X163890476Y-103504417D02*
X163890476Y-103409179D01*
X163890476Y-103409179D02*
X163842857Y-103313941D01*
X163842857Y-103313941D02*
X163747619Y-103266322D01*
X163747619Y-103266322D02*
X163509524Y-103266322D01*
X163509524Y-103266322D02*
X163414286Y-103218703D01*
X162938095Y-102980608D02*
X162938095Y-103647275D01*
X162938095Y-103075846D02*
X162890476Y-103028227D01*
X162890476Y-103028227D02*
X162795238Y-102980608D01*
X162795238Y-102980608D02*
X162652381Y-102980608D01*
X162652381Y-102980608D02*
X162557143Y-103028227D01*
X162557143Y-103028227D02*
X162509524Y-103123465D01*
X162509524Y-103123465D02*
X162509524Y-103647275D01*
X161985714Y-102647275D02*
X162080952Y-102837751D01*
X161700000Y-102980608D02*
X161319048Y-102980608D01*
X161557143Y-102647275D02*
X161557143Y-103504417D01*
X161557143Y-103504417D02*
X161509524Y-103599656D01*
X161509524Y-103599656D02*
X161414286Y-103647275D01*
X161414286Y-103647275D02*
X161319048Y-103647275D01*
X159795238Y-103599656D02*
X159890476Y-103647275D01*
X159890476Y-103647275D02*
X160080952Y-103647275D01*
X160080952Y-103647275D02*
X160176190Y-103599656D01*
X160176190Y-103599656D02*
X160223809Y-103552036D01*
X160223809Y-103552036D02*
X160271428Y-103456798D01*
X160271428Y-103456798D02*
X160271428Y-103171084D01*
X160271428Y-103171084D02*
X160223809Y-103075846D01*
X160223809Y-103075846D02*
X160176190Y-103028227D01*
X160176190Y-103028227D02*
X160080952Y-102980608D01*
X160080952Y-102980608D02*
X159890476Y-102980608D01*
X159890476Y-102980608D02*
X159795238Y-103028227D01*
X159223809Y-103647275D02*
X159319047Y-103599656D01*
X159319047Y-103599656D02*
X159366666Y-103552036D01*
X159366666Y-103552036D02*
X159414285Y-103456798D01*
X159414285Y-103456798D02*
X159414285Y-103171084D01*
X159414285Y-103171084D02*
X159366666Y-103075846D01*
X159366666Y-103075846D02*
X159319047Y-103028227D01*
X159319047Y-103028227D02*
X159223809Y-102980608D01*
X159223809Y-102980608D02*
X159080952Y-102980608D01*
X159080952Y-102980608D02*
X158985714Y-103028227D01*
X158985714Y-103028227D02*
X158938095Y-103075846D01*
X158938095Y-103075846D02*
X158890476Y-103171084D01*
X158890476Y-103171084D02*
X158890476Y-103456798D01*
X158890476Y-103456798D02*
X158938095Y-103552036D01*
X158938095Y-103552036D02*
X158985714Y-103599656D01*
X158985714Y-103599656D02*
X159080952Y-103647275D01*
X159080952Y-103647275D02*
X159223809Y-103647275D01*
X158461904Y-102980608D02*
X158461904Y-103647275D01*
X158461904Y-103075846D02*
X158414285Y-103028227D01*
X158414285Y-103028227D02*
X158319047Y-102980608D01*
X158319047Y-102980608D02*
X158176190Y-102980608D01*
X158176190Y-102980608D02*
X158080952Y-103028227D01*
X158080952Y-103028227D02*
X158033333Y-103123465D01*
X158033333Y-103123465D02*
X158033333Y-103647275D01*
X157652380Y-102980608D02*
X157414285Y-103647275D01*
X157414285Y-103647275D02*
X157176190Y-102980608D01*
X156414285Y-103599656D02*
X156509523Y-103647275D01*
X156509523Y-103647275D02*
X156699999Y-103647275D01*
X156699999Y-103647275D02*
X156795237Y-103599656D01*
X156795237Y-103599656D02*
X156842856Y-103504417D01*
X156842856Y-103504417D02*
X156842856Y-103123465D01*
X156842856Y-103123465D02*
X156795237Y-103028227D01*
X156795237Y-103028227D02*
X156699999Y-102980608D01*
X156699999Y-102980608D02*
X156509523Y-102980608D01*
X156509523Y-102980608D02*
X156414285Y-103028227D01*
X156414285Y-103028227D02*
X156366666Y-103123465D01*
X156366666Y-103123465D02*
X156366666Y-103218703D01*
X156366666Y-103218703D02*
X156842856Y-103313941D01*
X155938094Y-103647275D02*
X155938094Y-102980608D01*
X155938094Y-103171084D02*
X155890475Y-103075846D01*
X155890475Y-103075846D02*
X155842856Y-103028227D01*
X155842856Y-103028227D02*
X155747618Y-102980608D01*
X155747618Y-102980608D02*
X155652380Y-102980608D01*
X155366665Y-103599656D02*
X155271427Y-103647275D01*
X155271427Y-103647275D02*
X155080951Y-103647275D01*
X155080951Y-103647275D02*
X154985713Y-103599656D01*
X154985713Y-103599656D02*
X154938094Y-103504417D01*
X154938094Y-103504417D02*
X154938094Y-103456798D01*
X154938094Y-103456798D02*
X154985713Y-103361560D01*
X154985713Y-103361560D02*
X155080951Y-103313941D01*
X155080951Y-103313941D02*
X155223808Y-103313941D01*
X155223808Y-103313941D02*
X155319046Y-103266322D01*
X155319046Y-103266322D02*
X155366665Y-103171084D01*
X155366665Y-103171084D02*
X155366665Y-103123465D01*
X155366665Y-103123465D02*
X155319046Y-103028227D01*
X155319046Y-103028227D02*
X155223808Y-102980608D01*
X155223808Y-102980608D02*
X155080951Y-102980608D01*
X155080951Y-102980608D02*
X154985713Y-103028227D01*
X154509522Y-103647275D02*
X154509522Y-102980608D01*
X154509522Y-102647275D02*
X154557141Y-102694894D01*
X154557141Y-102694894D02*
X154509522Y-102742513D01*
X154509522Y-102742513D02*
X154461903Y-102694894D01*
X154461903Y-102694894D02*
X154509522Y-102647275D01*
X154509522Y-102647275D02*
X154509522Y-102742513D01*
X153890475Y-103647275D02*
X153985713Y-103599656D01*
X153985713Y-103599656D02*
X154033332Y-103552036D01*
X154033332Y-103552036D02*
X154080951Y-103456798D01*
X154080951Y-103456798D02*
X154080951Y-103171084D01*
X154080951Y-103171084D02*
X154033332Y-103075846D01*
X154033332Y-103075846D02*
X153985713Y-103028227D01*
X153985713Y-103028227D02*
X153890475Y-102980608D01*
X153890475Y-102980608D02*
X153747618Y-102980608D01*
X153747618Y-102980608D02*
X153652380Y-103028227D01*
X153652380Y-103028227D02*
X153604761Y-103075846D01*
X153604761Y-103075846D02*
X153557142Y-103171084D01*
X153557142Y-103171084D02*
X153557142Y-103456798D01*
X153557142Y-103456798D02*
X153604761Y-103552036D01*
X153604761Y-103552036D02*
X153652380Y-103599656D01*
X153652380Y-103599656D02*
X153747618Y-103647275D01*
X153747618Y-103647275D02*
X153890475Y-103647275D01*
X153128570Y-102980608D02*
X153128570Y-103647275D01*
X153128570Y-103075846D02*
X153080951Y-103028227D01*
X153080951Y-103028227D02*
X152985713Y-102980608D01*
X152985713Y-102980608D02*
X152842856Y-102980608D01*
X152842856Y-102980608D02*
X152747618Y-103028227D01*
X152747618Y-103028227D02*
X152699999Y-103123465D01*
X152699999Y-103123465D02*
X152699999Y-103647275D01*
X152271427Y-102647275D02*
X152271427Y-102837751D01*
X151890475Y-102647275D02*
X151890475Y-102837751D01*
X166676190Y-104590552D02*
X166295238Y-104590552D01*
X166533333Y-105257219D02*
X166533333Y-104400076D01*
X166533333Y-104400076D02*
X166485714Y-104304838D01*
X166485714Y-104304838D02*
X166390476Y-104257219D01*
X166390476Y-104257219D02*
X166295238Y-104257219D01*
X165961904Y-105257219D02*
X165961904Y-104590552D01*
X165961904Y-104781028D02*
X165914285Y-104685790D01*
X165914285Y-104685790D02*
X165866666Y-104638171D01*
X165866666Y-104638171D02*
X165771428Y-104590552D01*
X165771428Y-104590552D02*
X165676190Y-104590552D01*
X165199999Y-105257219D02*
X165295237Y-105209600D01*
X165295237Y-105209600D02*
X165342856Y-105161980D01*
X165342856Y-105161980D02*
X165390475Y-105066742D01*
X165390475Y-105066742D02*
X165390475Y-104781028D01*
X165390475Y-104781028D02*
X165342856Y-104685790D01*
X165342856Y-104685790D02*
X165295237Y-104638171D01*
X165295237Y-104638171D02*
X165199999Y-104590552D01*
X165199999Y-104590552D02*
X165057142Y-104590552D01*
X165057142Y-104590552D02*
X164961904Y-104638171D01*
X164961904Y-104638171D02*
X164914285Y-104685790D01*
X164914285Y-104685790D02*
X164866666Y-104781028D01*
X164866666Y-104781028D02*
X164866666Y-105066742D01*
X164866666Y-105066742D02*
X164914285Y-105161980D01*
X164914285Y-105161980D02*
X164961904Y-105209600D01*
X164961904Y-105209600D02*
X165057142Y-105257219D01*
X165057142Y-105257219D02*
X165199999Y-105257219D01*
X164438094Y-105257219D02*
X164438094Y-104590552D01*
X164438094Y-104685790D02*
X164390475Y-104638171D01*
X164390475Y-104638171D02*
X164295237Y-104590552D01*
X164295237Y-104590552D02*
X164152380Y-104590552D01*
X164152380Y-104590552D02*
X164057142Y-104638171D01*
X164057142Y-104638171D02*
X164009523Y-104733409D01*
X164009523Y-104733409D02*
X164009523Y-105257219D01*
X164009523Y-104733409D02*
X163961904Y-104638171D01*
X163961904Y-104638171D02*
X163866666Y-104590552D01*
X163866666Y-104590552D02*
X163723809Y-104590552D01*
X163723809Y-104590552D02*
X163628570Y-104638171D01*
X163628570Y-104638171D02*
X163580951Y-104733409D01*
X163580951Y-104733409D02*
X163580951Y-105257219D01*
X162342856Y-104257219D02*
X162342856Y-105066742D01*
X162342856Y-105066742D02*
X162295237Y-105161980D01*
X162295237Y-105161980D02*
X162247618Y-105209600D01*
X162247618Y-105209600D02*
X162152380Y-105257219D01*
X162152380Y-105257219D02*
X161961904Y-105257219D01*
X161961904Y-105257219D02*
X161866666Y-105209600D01*
X161866666Y-105209600D02*
X161819047Y-105161980D01*
X161819047Y-105161980D02*
X161771428Y-105066742D01*
X161771428Y-105066742D02*
X161771428Y-104257219D01*
X161342856Y-104971504D02*
X160866666Y-104971504D01*
X161438094Y-105257219D02*
X161104761Y-104257219D01*
X161104761Y-104257219D02*
X160771428Y-105257219D01*
X159866666Y-105257219D02*
X160199999Y-104781028D01*
X160438094Y-105257219D02*
X160438094Y-104257219D01*
X160438094Y-104257219D02*
X160057142Y-104257219D01*
X160057142Y-104257219D02*
X159961904Y-104304838D01*
X159961904Y-104304838D02*
X159914285Y-104352457D01*
X159914285Y-104352457D02*
X159866666Y-104447695D01*
X159866666Y-104447695D02*
X159866666Y-104590552D01*
X159866666Y-104590552D02*
X159914285Y-104685790D01*
X159914285Y-104685790D02*
X159961904Y-104733409D01*
X159961904Y-104733409D02*
X160057142Y-104781028D01*
X160057142Y-104781028D02*
X160438094Y-104781028D01*
X159580951Y-104257219D02*
X159009523Y-104257219D01*
X159295237Y-105257219D02*
X159295237Y-104257219D01*
X158057141Y-104590552D02*
X157676189Y-104590552D01*
X157914284Y-104257219D02*
X157914284Y-105114361D01*
X157914284Y-105114361D02*
X157866665Y-105209600D01*
X157866665Y-105209600D02*
X157771427Y-105257219D01*
X157771427Y-105257219D02*
X157676189Y-105257219D01*
X157199998Y-105257219D02*
X157295236Y-105209600D01*
X157295236Y-105209600D02*
X157342855Y-105161980D01*
X157342855Y-105161980D02*
X157390474Y-105066742D01*
X157390474Y-105066742D02*
X157390474Y-104781028D01*
X157390474Y-104781028D02*
X157342855Y-104685790D01*
X157342855Y-104685790D02*
X157295236Y-104638171D01*
X157295236Y-104638171D02*
X157199998Y-104590552D01*
X157199998Y-104590552D02*
X157057141Y-104590552D01*
X157057141Y-104590552D02*
X156961903Y-104638171D01*
X156961903Y-104638171D02*
X156914284Y-104685790D01*
X156914284Y-104685790D02*
X156866665Y-104781028D01*
X156866665Y-104781028D02*
X156866665Y-105066742D01*
X156866665Y-105066742D02*
X156914284Y-105161980D01*
X156914284Y-105161980D02*
X156961903Y-105209600D01*
X156961903Y-105209600D02*
X157057141Y-105257219D01*
X157057141Y-105257219D02*
X157199998Y-105257219D01*
X155104760Y-105257219D02*
X155438093Y-104781028D01*
X155676188Y-105257219D02*
X155676188Y-104257219D01*
X155676188Y-104257219D02*
X155295236Y-104257219D01*
X155295236Y-104257219D02*
X155199998Y-104304838D01*
X155199998Y-104304838D02*
X155152379Y-104352457D01*
X155152379Y-104352457D02*
X155104760Y-104447695D01*
X155104760Y-104447695D02*
X155104760Y-104590552D01*
X155104760Y-104590552D02*
X155152379Y-104685790D01*
X155152379Y-104685790D02*
X155199998Y-104733409D01*
X155199998Y-104733409D02*
X155295236Y-104781028D01*
X155295236Y-104781028D02*
X155676188Y-104781028D01*
X154723807Y-105209600D02*
X154580950Y-105257219D01*
X154580950Y-105257219D02*
X154342855Y-105257219D01*
X154342855Y-105257219D02*
X154247617Y-105209600D01*
X154247617Y-105209600D02*
X154199998Y-105161980D01*
X154199998Y-105161980D02*
X154152379Y-105066742D01*
X154152379Y-105066742D02*
X154152379Y-104971504D01*
X154152379Y-104971504D02*
X154199998Y-104876266D01*
X154199998Y-104876266D02*
X154247617Y-104828647D01*
X154247617Y-104828647D02*
X154342855Y-104781028D01*
X154342855Y-104781028D02*
X154533331Y-104733409D01*
X154533331Y-104733409D02*
X154628569Y-104685790D01*
X154628569Y-104685790D02*
X154676188Y-104638171D01*
X154676188Y-104638171D02*
X154723807Y-104542933D01*
X154723807Y-104542933D02*
X154723807Y-104447695D01*
X154723807Y-104447695D02*
X154676188Y-104352457D01*
X154676188Y-104352457D02*
X154628569Y-104304838D01*
X154628569Y-104304838D02*
X154533331Y-104257219D01*
X154533331Y-104257219D02*
X154295236Y-104257219D01*
X154295236Y-104257219D02*
X154152379Y-104304838D01*
X153295236Y-104590552D02*
X153295236Y-105257219D01*
X153533331Y-104209600D02*
X153771426Y-104923885D01*
X153771426Y-104923885D02*
X153152379Y-104923885D01*
X152628569Y-104685790D02*
X152723807Y-104638171D01*
X152723807Y-104638171D02*
X152771426Y-104590552D01*
X152771426Y-104590552D02*
X152819045Y-104495314D01*
X152819045Y-104495314D02*
X152819045Y-104447695D01*
X152819045Y-104447695D02*
X152771426Y-104352457D01*
X152771426Y-104352457D02*
X152723807Y-104304838D01*
X152723807Y-104304838D02*
X152628569Y-104257219D01*
X152628569Y-104257219D02*
X152438093Y-104257219D01*
X152438093Y-104257219D02*
X152342855Y-104304838D01*
X152342855Y-104304838D02*
X152295236Y-104352457D01*
X152295236Y-104352457D02*
X152247617Y-104447695D01*
X152247617Y-104447695D02*
X152247617Y-104495314D01*
X152247617Y-104495314D02*
X152295236Y-104590552D01*
X152295236Y-104590552D02*
X152342855Y-104638171D01*
X152342855Y-104638171D02*
X152438093Y-104685790D01*
X152438093Y-104685790D02*
X152628569Y-104685790D01*
X152628569Y-104685790D02*
X152723807Y-104733409D01*
X152723807Y-104733409D02*
X152771426Y-104781028D01*
X152771426Y-104781028D02*
X152819045Y-104876266D01*
X152819045Y-104876266D02*
X152819045Y-105066742D01*
X152819045Y-105066742D02*
X152771426Y-105161980D01*
X152771426Y-105161980D02*
X152723807Y-105209600D01*
X152723807Y-105209600D02*
X152628569Y-105257219D01*
X152628569Y-105257219D02*
X152438093Y-105257219D01*
X152438093Y-105257219D02*
X152342855Y-105209600D01*
X152342855Y-105209600D02*
X152295236Y-105161980D01*
X152295236Y-105161980D02*
X152247617Y-105066742D01*
X152247617Y-105066742D02*
X152247617Y-104876266D01*
X152247617Y-104876266D02*
X152295236Y-104781028D01*
X152295236Y-104781028D02*
X152342855Y-104733409D01*
X152342855Y-104733409D02*
X152438093Y-104685790D01*
X151628569Y-104257219D02*
X151533331Y-104257219D01*
X151533331Y-104257219D02*
X151438093Y-104304838D01*
X151438093Y-104304838D02*
X151390474Y-104352457D01*
X151390474Y-104352457D02*
X151342855Y-104447695D01*
X151342855Y-104447695D02*
X151295236Y-104638171D01*
X151295236Y-104638171D02*
X151295236Y-104876266D01*
X151295236Y-104876266D02*
X151342855Y-105066742D01*
X151342855Y-105066742D02*
X151390474Y-105161980D01*
X151390474Y-105161980D02*
X151438093Y-105209600D01*
X151438093Y-105209600D02*
X151533331Y-105257219D01*
X151533331Y-105257219D02*
X151628569Y-105257219D01*
X151628569Y-105257219D02*
X151723807Y-105209600D01*
X151723807Y-105209600D02*
X151771426Y-105161980D01*
X151771426Y-105161980D02*
X151819045Y-105066742D01*
X151819045Y-105066742D02*
X151866664Y-104876266D01*
X151866664Y-104876266D02*
X151866664Y-104638171D01*
X151866664Y-104638171D02*
X151819045Y-104447695D01*
X151819045Y-104447695D02*
X151771426Y-104352457D01*
X151771426Y-104352457D02*
X151723807Y-104304838D01*
X151723807Y-104304838D02*
X151628569Y-104257219D01*
X150866664Y-105161980D02*
X150819045Y-105209600D01*
X150819045Y-105209600D02*
X150866664Y-105257219D01*
X150866664Y-105257219D02*
X150914283Y-105209600D01*
X150914283Y-105209600D02*
X150866664Y-105161980D01*
X150866664Y-105161980D02*
X150866664Y-105257219D01*
D10*
X162740877Y-93432475D02*
X163074210Y-92956284D01*
X163312305Y-93432475D02*
X163312305Y-92432475D01*
X163312305Y-92432475D02*
X162931353Y-92432475D01*
X162931353Y-92432475D02*
X162836115Y-92480094D01*
X162836115Y-92480094D02*
X162788496Y-92527713D01*
X162788496Y-92527713D02*
X162740877Y-92622951D01*
X162740877Y-92622951D02*
X162740877Y-92765808D01*
X162740877Y-92765808D02*
X162788496Y-92861046D01*
X162788496Y-92861046D02*
X162836115Y-92908665D01*
X162836115Y-92908665D02*
X162931353Y-92956284D01*
X162931353Y-92956284D02*
X163312305Y-92956284D01*
X162359924Y-93384856D02*
X162217067Y-93432475D01*
X162217067Y-93432475D02*
X161978972Y-93432475D01*
X161978972Y-93432475D02*
X161883734Y-93384856D01*
X161883734Y-93384856D02*
X161836115Y-93337236D01*
X161836115Y-93337236D02*
X161788496Y-93241998D01*
X161788496Y-93241998D02*
X161788496Y-93146760D01*
X161788496Y-93146760D02*
X161836115Y-93051522D01*
X161836115Y-93051522D02*
X161883734Y-93003903D01*
X161883734Y-93003903D02*
X161978972Y-92956284D01*
X161978972Y-92956284D02*
X162169448Y-92908665D01*
X162169448Y-92908665D02*
X162264686Y-92861046D01*
X162264686Y-92861046D02*
X162312305Y-92813427D01*
X162312305Y-92813427D02*
X162359924Y-92718189D01*
X162359924Y-92718189D02*
X162359924Y-92622951D01*
X162359924Y-92622951D02*
X162312305Y-92527713D01*
X162312305Y-92527713D02*
X162264686Y-92480094D01*
X162264686Y-92480094D02*
X162169448Y-92432475D01*
X162169448Y-92432475D02*
X161931353Y-92432475D01*
X161931353Y-92432475D02*
X161788496Y-92480094D01*
X160931353Y-92765808D02*
X160931353Y-93432475D01*
X161169448Y-92384856D02*
X161407543Y-93099141D01*
X161407543Y-93099141D02*
X160788496Y-93099141D01*
X160264686Y-92861046D02*
X160359924Y-92813427D01*
X160359924Y-92813427D02*
X160407543Y-92765808D01*
X160407543Y-92765808D02*
X160455162Y-92670570D01*
X160455162Y-92670570D02*
X160455162Y-92622951D01*
X160455162Y-92622951D02*
X160407543Y-92527713D01*
X160407543Y-92527713D02*
X160359924Y-92480094D01*
X160359924Y-92480094D02*
X160264686Y-92432475D01*
X160264686Y-92432475D02*
X160074210Y-92432475D01*
X160074210Y-92432475D02*
X159978972Y-92480094D01*
X159978972Y-92480094D02*
X159931353Y-92527713D01*
X159931353Y-92527713D02*
X159883734Y-92622951D01*
X159883734Y-92622951D02*
X159883734Y-92670570D01*
X159883734Y-92670570D02*
X159931353Y-92765808D01*
X159931353Y-92765808D02*
X159978972Y-92813427D01*
X159978972Y-92813427D02*
X160074210Y-92861046D01*
X160074210Y-92861046D02*
X160264686Y-92861046D01*
X160264686Y-92861046D02*
X160359924Y-92908665D01*
X160359924Y-92908665D02*
X160407543Y-92956284D01*
X160407543Y-92956284D02*
X160455162Y-93051522D01*
X160455162Y-93051522D02*
X160455162Y-93241998D01*
X160455162Y-93241998D02*
X160407543Y-93337236D01*
X160407543Y-93337236D02*
X160359924Y-93384856D01*
X160359924Y-93384856D02*
X160264686Y-93432475D01*
X160264686Y-93432475D02*
X160074210Y-93432475D01*
X160074210Y-93432475D02*
X159978972Y-93384856D01*
X159978972Y-93384856D02*
X159931353Y-93337236D01*
X159931353Y-93337236D02*
X159883734Y-93241998D01*
X159883734Y-93241998D02*
X159883734Y-93051522D01*
X159883734Y-93051522D02*
X159931353Y-92956284D01*
X159931353Y-92956284D02*
X159978972Y-92908665D01*
X159978972Y-92908665D02*
X160074210Y-92861046D01*
X158978972Y-92432475D02*
X159455162Y-92432475D01*
X159455162Y-92432475D02*
X159502781Y-92908665D01*
X159502781Y-92908665D02*
X159455162Y-92861046D01*
X159455162Y-92861046D02*
X159359924Y-92813427D01*
X159359924Y-92813427D02*
X159121829Y-92813427D01*
X159121829Y-92813427D02*
X159026591Y-92861046D01*
X159026591Y-92861046D02*
X158978972Y-92908665D01*
X158978972Y-92908665D02*
X158931353Y-93003903D01*
X158931353Y-93003903D02*
X158931353Y-93241998D01*
X158931353Y-93241998D02*
X158978972Y-93337236D01*
X158978972Y-93337236D02*
X159026591Y-93384856D01*
X159026591Y-93384856D02*
X159121829Y-93432475D01*
X159121829Y-93432475D02*
X159359924Y-93432475D01*
X159359924Y-93432475D02*
X159455162Y-93384856D01*
X159455162Y-93384856D02*
X159502781Y-93337236D01*
X158502781Y-93194379D02*
X157883734Y-93194379D01*
X158502781Y-92908665D02*
X157883734Y-92908665D01*
X157978972Y-92813427D02*
X157740877Y-93051522D01*
X157740877Y-93051522D02*
X157978972Y-93289617D01*
X157264686Y-92432475D02*
X157264686Y-93241998D01*
X157264686Y-93241998D02*
X157217067Y-93337236D01*
X157217067Y-93337236D02*
X157169448Y-93384856D01*
X157169448Y-93384856D02*
X157074210Y-93432475D01*
X157074210Y-93432475D02*
X156883734Y-93432475D01*
X156883734Y-93432475D02*
X156788496Y-93384856D01*
X156788496Y-93384856D02*
X156740877Y-93337236D01*
X156740877Y-93337236D02*
X156693258Y-93241998D01*
X156693258Y-93241998D02*
X156693258Y-92432475D01*
X156264686Y-93146760D02*
X155788496Y-93146760D01*
X156359924Y-93432475D02*
X156026591Y-92432475D01*
X156026591Y-92432475D02*
X155693258Y-93432475D01*
X154788496Y-93432475D02*
X155121829Y-92956284D01*
X155359924Y-93432475D02*
X155359924Y-92432475D01*
X155359924Y-92432475D02*
X154978972Y-92432475D01*
X154978972Y-92432475D02*
X154883734Y-92480094D01*
X154883734Y-92480094D02*
X154836115Y-92527713D01*
X154836115Y-92527713D02*
X154788496Y-92622951D01*
X154788496Y-92622951D02*
X154788496Y-92765808D01*
X154788496Y-92765808D02*
X154836115Y-92861046D01*
X154836115Y-92861046D02*
X154883734Y-92908665D01*
X154883734Y-92908665D02*
X154978972Y-92956284D01*
X154978972Y-92956284D02*
X155359924Y-92956284D01*
X154502781Y-92432475D02*
X153931353Y-92432475D01*
X154217067Y-93432475D02*
X154217067Y-92432475D01*
X164264687Y-94947180D02*
X164312306Y-94994800D01*
X164312306Y-94994800D02*
X164455163Y-95042419D01*
X164455163Y-95042419D02*
X164550401Y-95042419D01*
X164550401Y-95042419D02*
X164693258Y-94994800D01*
X164693258Y-94994800D02*
X164788496Y-94899561D01*
X164788496Y-94899561D02*
X164836115Y-94804323D01*
X164836115Y-94804323D02*
X164883734Y-94613847D01*
X164883734Y-94613847D02*
X164883734Y-94470990D01*
X164883734Y-94470990D02*
X164836115Y-94280514D01*
X164836115Y-94280514D02*
X164788496Y-94185276D01*
X164788496Y-94185276D02*
X164693258Y-94090038D01*
X164693258Y-94090038D02*
X164550401Y-94042419D01*
X164550401Y-94042419D02*
X164455163Y-94042419D01*
X164455163Y-94042419D02*
X164312306Y-94090038D01*
X164312306Y-94090038D02*
X164264687Y-94137657D01*
X163693258Y-95042419D02*
X163788496Y-94994800D01*
X163788496Y-94994800D02*
X163836115Y-94947180D01*
X163836115Y-94947180D02*
X163883734Y-94851942D01*
X163883734Y-94851942D02*
X163883734Y-94566228D01*
X163883734Y-94566228D02*
X163836115Y-94470990D01*
X163836115Y-94470990D02*
X163788496Y-94423371D01*
X163788496Y-94423371D02*
X163693258Y-94375752D01*
X163693258Y-94375752D02*
X163550401Y-94375752D01*
X163550401Y-94375752D02*
X163455163Y-94423371D01*
X163455163Y-94423371D02*
X163407544Y-94470990D01*
X163407544Y-94470990D02*
X163359925Y-94566228D01*
X163359925Y-94566228D02*
X163359925Y-94851942D01*
X163359925Y-94851942D02*
X163407544Y-94947180D01*
X163407544Y-94947180D02*
X163455163Y-94994800D01*
X163455163Y-94994800D02*
X163550401Y-95042419D01*
X163550401Y-95042419D02*
X163693258Y-95042419D01*
X162931353Y-94375752D02*
X162931353Y-95042419D01*
X162931353Y-94470990D02*
X162883734Y-94423371D01*
X162883734Y-94423371D02*
X162788496Y-94375752D01*
X162788496Y-94375752D02*
X162645639Y-94375752D01*
X162645639Y-94375752D02*
X162550401Y-94423371D01*
X162550401Y-94423371D02*
X162502782Y-94518609D01*
X162502782Y-94518609D02*
X162502782Y-95042419D01*
X162121829Y-94375752D02*
X161883734Y-95042419D01*
X161883734Y-95042419D02*
X161645639Y-94375752D01*
X160883734Y-94994800D02*
X160978972Y-95042419D01*
X160978972Y-95042419D02*
X161169448Y-95042419D01*
X161169448Y-95042419D02*
X161264686Y-94994800D01*
X161264686Y-94994800D02*
X161312305Y-94899561D01*
X161312305Y-94899561D02*
X161312305Y-94518609D01*
X161312305Y-94518609D02*
X161264686Y-94423371D01*
X161264686Y-94423371D02*
X161169448Y-94375752D01*
X161169448Y-94375752D02*
X160978972Y-94375752D01*
X160978972Y-94375752D02*
X160883734Y-94423371D01*
X160883734Y-94423371D02*
X160836115Y-94518609D01*
X160836115Y-94518609D02*
X160836115Y-94613847D01*
X160836115Y-94613847D02*
X161312305Y-94709085D01*
X160407543Y-95042419D02*
X160407543Y-94375752D01*
X160407543Y-94566228D02*
X160359924Y-94470990D01*
X160359924Y-94470990D02*
X160312305Y-94423371D01*
X160312305Y-94423371D02*
X160217067Y-94375752D01*
X160217067Y-94375752D02*
X160121829Y-94375752D01*
X159836114Y-94994800D02*
X159740876Y-95042419D01*
X159740876Y-95042419D02*
X159550400Y-95042419D01*
X159550400Y-95042419D02*
X159455162Y-94994800D01*
X159455162Y-94994800D02*
X159407543Y-94899561D01*
X159407543Y-94899561D02*
X159407543Y-94851942D01*
X159407543Y-94851942D02*
X159455162Y-94756704D01*
X159455162Y-94756704D02*
X159550400Y-94709085D01*
X159550400Y-94709085D02*
X159693257Y-94709085D01*
X159693257Y-94709085D02*
X159788495Y-94661466D01*
X159788495Y-94661466D02*
X159836114Y-94566228D01*
X159836114Y-94566228D02*
X159836114Y-94518609D01*
X159836114Y-94518609D02*
X159788495Y-94423371D01*
X159788495Y-94423371D02*
X159693257Y-94375752D01*
X159693257Y-94375752D02*
X159550400Y-94375752D01*
X159550400Y-94375752D02*
X159455162Y-94423371D01*
X158978971Y-95042419D02*
X158978971Y-94375752D01*
X158978971Y-94042419D02*
X159026590Y-94090038D01*
X159026590Y-94090038D02*
X158978971Y-94137657D01*
X158978971Y-94137657D02*
X158931352Y-94090038D01*
X158931352Y-94090038D02*
X158978971Y-94042419D01*
X158978971Y-94042419D02*
X158978971Y-94137657D01*
X158359924Y-95042419D02*
X158455162Y-94994800D01*
X158455162Y-94994800D02*
X158502781Y-94947180D01*
X158502781Y-94947180D02*
X158550400Y-94851942D01*
X158550400Y-94851942D02*
X158550400Y-94566228D01*
X158550400Y-94566228D02*
X158502781Y-94470990D01*
X158502781Y-94470990D02*
X158455162Y-94423371D01*
X158455162Y-94423371D02*
X158359924Y-94375752D01*
X158359924Y-94375752D02*
X158217067Y-94375752D01*
X158217067Y-94375752D02*
X158121829Y-94423371D01*
X158121829Y-94423371D02*
X158074210Y-94470990D01*
X158074210Y-94470990D02*
X158026591Y-94566228D01*
X158026591Y-94566228D02*
X158026591Y-94851942D01*
X158026591Y-94851942D02*
X158074210Y-94947180D01*
X158074210Y-94947180D02*
X158121829Y-94994800D01*
X158121829Y-94994800D02*
X158217067Y-95042419D01*
X158217067Y-95042419D02*
X158359924Y-95042419D01*
X157598019Y-94375752D02*
X157598019Y-95042419D01*
X157598019Y-94470990D02*
X157550400Y-94423371D01*
X157550400Y-94423371D02*
X157455162Y-94375752D01*
X157455162Y-94375752D02*
X157312305Y-94375752D01*
X157312305Y-94375752D02*
X157217067Y-94423371D01*
X157217067Y-94423371D02*
X157169448Y-94518609D01*
X157169448Y-94518609D02*
X157169448Y-95042419D01*
X155931352Y-95042419D02*
X155931352Y-94042419D01*
X155931352Y-94423371D02*
X155836114Y-94375752D01*
X155836114Y-94375752D02*
X155645638Y-94375752D01*
X155645638Y-94375752D02*
X155550400Y-94423371D01*
X155550400Y-94423371D02*
X155502781Y-94470990D01*
X155502781Y-94470990D02*
X155455162Y-94566228D01*
X155455162Y-94566228D02*
X155455162Y-94851942D01*
X155455162Y-94851942D02*
X155502781Y-94947180D01*
X155502781Y-94947180D02*
X155550400Y-94994800D01*
X155550400Y-94994800D02*
X155645638Y-95042419D01*
X155645638Y-95042419D02*
X155836114Y-95042419D01*
X155836114Y-95042419D02*
X155931352Y-94994800D01*
X154883733Y-95042419D02*
X154978971Y-94994800D01*
X154978971Y-94994800D02*
X155026590Y-94947180D01*
X155026590Y-94947180D02*
X155074209Y-94851942D01*
X155074209Y-94851942D02*
X155074209Y-94566228D01*
X155074209Y-94566228D02*
X155026590Y-94470990D01*
X155026590Y-94470990D02*
X154978971Y-94423371D01*
X154978971Y-94423371D02*
X154883733Y-94375752D01*
X154883733Y-94375752D02*
X154740876Y-94375752D01*
X154740876Y-94375752D02*
X154645638Y-94423371D01*
X154645638Y-94423371D02*
X154598019Y-94470990D01*
X154598019Y-94470990D02*
X154550400Y-94566228D01*
X154550400Y-94566228D02*
X154550400Y-94851942D01*
X154550400Y-94851942D02*
X154598019Y-94947180D01*
X154598019Y-94947180D02*
X154645638Y-94994800D01*
X154645638Y-94994800D02*
X154740876Y-95042419D01*
X154740876Y-95042419D02*
X154883733Y-95042419D01*
X154121828Y-95042419D02*
X154121828Y-94375752D01*
X154121828Y-94566228D02*
X154074209Y-94470990D01*
X154074209Y-94470990D02*
X154026590Y-94423371D01*
X154026590Y-94423371D02*
X153931352Y-94375752D01*
X153931352Y-94375752D02*
X153836114Y-94375752D01*
X153121828Y-94994800D02*
X153217066Y-95042419D01*
X153217066Y-95042419D02*
X153407542Y-95042419D01*
X153407542Y-95042419D02*
X153502780Y-94994800D01*
X153502780Y-94994800D02*
X153550399Y-94899561D01*
X153550399Y-94899561D02*
X153550399Y-94518609D01*
X153550399Y-94518609D02*
X153502780Y-94423371D01*
X153502780Y-94423371D02*
X153407542Y-94375752D01*
X153407542Y-94375752D02*
X153217066Y-94375752D01*
X153217066Y-94375752D02*
X153121828Y-94423371D01*
X153121828Y-94423371D02*
X153074209Y-94518609D01*
X153074209Y-94518609D02*
X153074209Y-94613847D01*
X153074209Y-94613847D02*
X153550399Y-94709085D01*
X152217066Y-95042419D02*
X152217066Y-94042419D01*
X152217066Y-94994800D02*
X152312304Y-95042419D01*
X152312304Y-95042419D02*
X152502780Y-95042419D01*
X152502780Y-95042419D02*
X152598018Y-94994800D01*
X152598018Y-94994800D02*
X152645637Y-94947180D01*
X152645637Y-94947180D02*
X152693256Y-94851942D01*
X152693256Y-94851942D02*
X152693256Y-94566228D01*
X152693256Y-94566228D02*
X152645637Y-94470990D01*
X152645637Y-94470990D02*
X152598018Y-94423371D01*
X152598018Y-94423371D02*
X152502780Y-94375752D01*
X152502780Y-94375752D02*
X152312304Y-94375752D01*
X152312304Y-94375752D02*
X152217066Y-94423371D01*
D12*
%TO.C,G\u002A\u002A\u002A*%
G36*
X155381181Y-110048153D02*
G01*
X155381180Y-110053912D01*
X155381112Y-110277450D01*
X155380977Y-110491610D01*
X155380774Y-110695986D01*
X155380506Y-110890170D01*
X155380175Y-111073758D01*
X155379783Y-111246342D01*
X155379332Y-111407516D01*
X155378822Y-111556874D01*
X155378257Y-111694009D01*
X155377638Y-111818514D01*
X155376967Y-111929984D01*
X155376246Y-112028011D01*
X155375476Y-112112190D01*
X155374660Y-112182113D01*
X155373799Y-112237376D01*
X155372895Y-112277570D01*
X155371950Y-112302290D01*
X155370965Y-112311129D01*
X155364145Y-112314141D01*
X155344294Y-112313777D01*
X155344170Y-112313737D01*
X155342285Y-112311952D01*
X155340543Y-112307576D01*
X155338935Y-112299986D01*
X155337457Y-112288560D01*
X155336100Y-112272675D01*
X155334858Y-112251709D01*
X155333724Y-112225039D01*
X155332693Y-112192043D01*
X155331756Y-112152097D01*
X155330907Y-112104580D01*
X155330140Y-112048869D01*
X155329447Y-111984341D01*
X155328823Y-111910374D01*
X155328259Y-111826345D01*
X155327751Y-111731632D01*
X155327290Y-111625612D01*
X155326870Y-111507663D01*
X155326484Y-111377161D01*
X155326126Y-111233486D01*
X155325788Y-111076013D01*
X155325465Y-110904120D01*
X155325149Y-110717185D01*
X155324834Y-110514586D01*
X155322133Y-108720285D01*
X153512437Y-110360390D01*
X153411605Y-110451772D01*
X153253739Y-110594837D01*
X153098660Y-110735371D01*
X152947014Y-110872789D01*
X152799445Y-111006507D01*
X152656601Y-111135938D01*
X152519126Y-111260498D01*
X152387667Y-111379603D01*
X152262870Y-111492666D01*
X152145380Y-111599103D01*
X152035843Y-111698328D01*
X151934906Y-111789757D01*
X151843213Y-111872804D01*
X151761411Y-111946885D01*
X151690145Y-112011414D01*
X151630062Y-112065807D01*
X151581808Y-112109477D01*
X151546027Y-112141841D01*
X151523367Y-112162313D01*
X151488995Y-112193158D01*
X151434084Y-112241489D01*
X151391196Y-112277740D01*
X151359656Y-112302454D01*
X151338789Y-112316174D01*
X151327922Y-112319441D01*
X151327313Y-112319099D01*
X151325730Y-112316333D01*
X151324261Y-112310456D01*
X151322903Y-112300917D01*
X151321653Y-112287169D01*
X151320507Y-112268661D01*
X151319462Y-112244846D01*
X151318516Y-112215174D01*
X151317664Y-112179096D01*
X151316904Y-112136064D01*
X151316232Y-112085527D01*
X151315645Y-112026938D01*
X151315140Y-111959747D01*
X151314999Y-111934391D01*
X151365871Y-111934391D01*
X151365939Y-112006848D01*
X151366106Y-112072480D01*
X151366363Y-112129710D01*
X151366700Y-112176960D01*
X151367109Y-112212654D01*
X151367581Y-112235215D01*
X151368107Y-112243065D01*
X151370856Y-112240898D01*
X151385461Y-112228136D01*
X151411166Y-112205217D01*
X151446328Y-112173617D01*
X151489306Y-112134815D01*
X151538457Y-112090287D01*
X151592139Y-112041510D01*
X151598737Y-112035509D01*
X151629462Y-112007594D01*
X151673075Y-111968002D01*
X151728896Y-111917348D01*
X151796249Y-111856247D01*
X151874456Y-111785313D01*
X151962839Y-111705161D01*
X152060720Y-111616405D01*
X152167420Y-111519660D01*
X152282263Y-111415541D01*
X152404569Y-111304662D01*
X152533662Y-111187637D01*
X152668864Y-111065082D01*
X152809496Y-110937610D01*
X152954880Y-110805837D01*
X153104339Y-110670377D01*
X153257195Y-110531845D01*
X153412770Y-110390855D01*
X153570386Y-110248021D01*
X155327278Y-108655941D01*
X155327383Y-108266520D01*
X155327488Y-107877100D01*
X154853647Y-108306541D01*
X154824234Y-108333196D01*
X154762818Y-108388850D01*
X154689069Y-108455673D01*
X154603902Y-108532839D01*
X154508228Y-108619520D01*
X154402962Y-108714888D01*
X154289016Y-108818118D01*
X154167304Y-108928381D01*
X154038739Y-109044849D01*
X153904235Y-109166697D01*
X153764704Y-109293096D01*
X153621059Y-109423218D01*
X153474215Y-109556238D01*
X153325084Y-109691327D01*
X153174579Y-109827658D01*
X153023613Y-109964404D01*
X152873101Y-110100738D01*
X151366396Y-111465495D01*
X151365913Y-111854354D01*
X151365910Y-111856685D01*
X151365871Y-111934391D01*
X151314999Y-111934391D01*
X151314714Y-111883406D01*
X151314363Y-111797365D01*
X151314084Y-111701075D01*
X151313874Y-111593988D01*
X151313729Y-111475554D01*
X151313647Y-111345225D01*
X151313624Y-111202451D01*
X151313657Y-111046684D01*
X151313743Y-110877375D01*
X151313878Y-110693974D01*
X151314059Y-110495933D01*
X151314283Y-110282702D01*
X151314547Y-110053733D01*
X151314761Y-109874797D01*
X151315022Y-109660165D01*
X151315275Y-109460815D01*
X151315525Y-109276182D01*
X151315780Y-109105702D01*
X151316044Y-108948810D01*
X151316324Y-108804942D01*
X151316625Y-108673534D01*
X151316955Y-108554021D01*
X151317318Y-108445839D01*
X151317722Y-108348424D01*
X151318171Y-108261212D01*
X151318672Y-108183637D01*
X151319231Y-108115136D01*
X151319854Y-108055145D01*
X151320547Y-108003098D01*
X151321316Y-107958432D01*
X151322166Y-107920583D01*
X151323105Y-107888985D01*
X151324138Y-107863075D01*
X151325271Y-107842289D01*
X151326510Y-107826061D01*
X151327862Y-107813828D01*
X151329331Y-107805026D01*
X151330924Y-107799089D01*
X151332648Y-107795454D01*
X151334508Y-107793556D01*
X151336509Y-107792831D01*
X151338660Y-107792715D01*
X151340335Y-107792765D01*
X151342604Y-107793312D01*
X151344695Y-107794989D01*
X151346619Y-107798427D01*
X151348384Y-107804258D01*
X151350000Y-107813113D01*
X151351476Y-107825624D01*
X151352822Y-107842423D01*
X151354047Y-107864140D01*
X151355160Y-107891408D01*
X151356171Y-107924857D01*
X151357089Y-107965121D01*
X151357923Y-108012830D01*
X151358684Y-108068615D01*
X151359379Y-108133109D01*
X151360019Y-108206943D01*
X151360613Y-108290749D01*
X151361170Y-108385157D01*
X151361700Y-108490800D01*
X151362212Y-108608310D01*
X151362715Y-108738317D01*
X151363219Y-108881454D01*
X151363734Y-109038351D01*
X151364267Y-109209641D01*
X151364830Y-109395955D01*
X151365430Y-109597925D01*
X151370784Y-111403135D01*
X153345708Y-109613234D01*
X153455077Y-109514096D01*
X153616900Y-109367354D01*
X153774808Y-109224095D01*
X153928253Y-109084818D01*
X154076687Y-108950023D01*
X154219563Y-108820209D01*
X154356331Y-108695875D01*
X154486445Y-108577521D01*
X154609357Y-108465645D01*
X154724518Y-108360748D01*
X154831382Y-108263328D01*
X154929400Y-108173885D01*
X155018023Y-108092918D01*
X155096706Y-108020926D01*
X155164899Y-107958409D01*
X155222054Y-107905865D01*
X155267625Y-107863795D01*
X155301063Y-107832697D01*
X155321820Y-107813070D01*
X155329348Y-107805415D01*
X155338459Y-107794323D01*
X155359773Y-107790106D01*
X155381483Y-107792715D01*
X155381472Y-107877100D01*
X155381181Y-110048153D01*
G37*
%TD*%
M02*
